<svg width="311" height="30" viewBox="0 0 311 30" fill="none" xmlns="http://www.w3.org/2000/svg">
<g clip-path="url(#clip0_425_8219)">
<path fill-rule="evenodd" clip-rule="evenodd" d="M23.8395 29.2146H43.2525V26.0706H27.4635V4.50962L27.5025 0.765625H23.8395L23.8785 4.50962V25.4826L23.8395 29.2146ZM0.0404648 25.4946L0.00146484 29.2386H20.9325V26.0946H3.62546V16.3026H17.6295V13.1976H3.62546V3.92462H20.9325V0.777625H0.00146484L0.0404648 4.52162V25.4946Z" fill="#1B1B19"/>
<path d="M81.7388 4.50962L81.6998 0.765625H93.2829C99.0939 0.765625 104.269 2.47563 104.269 7.81263C104.269 13.1496 99.2888 14.3016 98.0618 14.4636V14.6646C99.2558 14.8266 105.109 15.7386 105.109 21.8316C105.109 27.9246 99.7329 29.2326 94.3179 29.2326H81.6938L81.7359 25.4886V4.50962H81.7418H81.7388ZM85.3208 13.1946H93.0458C97.4618 13.1946 100.447 11.5236 100.447 8.17563C100.447 5.19063 98.0588 3.67863 93.6818 3.67863H85.3208V13.1946ZM85.3208 16.2936V26.3256H94.9179C99.4959 26.3256 101.164 24.2916 101.164 21.6276C101.164 17.6496 97.4589 16.2936 93.0429 16.2936H85.3179H85.3208Z" fill="#1B1B19"/>
<path d="M127.244 7.37295C125.735 5.82195 122.627 3.11295 118.049 3.11295C114.425 3.11295 110.843 4.82295 110.843 8.20695C110.843 11.591 114.467 12.146 118.922 12.824C123.902 13.583 130.43 14.615 130.43 21.185C130.43 26.165 126.644 29.984 119.123 29.984C112.118 29.984 107.855 26.681 106.103 24.728L108.452 22.421C110.285 23.93 113.351 26.876 118.919 26.876C123.059 26.876 126.803 25.244 126.803 21.542C126.803 17.522 122.462 17.006 118.481 16.409C113.186 15.611 107.213 14.417 107.213 8.44395C107.213 3.74595 110.957 0.00195312 117.761 0.00195312C123.896 0.00195312 127.955 3.06795 129.626 4.98195L127.238 7.36995V7.37595L127.244 7.37295Z" fill="#1B1B19"/>
<path d="M151.092 16.2936H137.079V26.0856H154.398V29.2326H133.455L133.494 25.4886V4.50962L133.455 0.765625H154.398V3.91263H137.079V13.1856H151.092V16.2936Z" fill="#1B1B19"/>
<path d="M175.453 29.2326L168.844 17.7636H160.96V25.4886L160.999 29.2326H157.294L157.333 25.4886V4.50962L157.294 0.765625H168.958C173.017 0.765625 179.629 1.60563 179.629 9.24663C179.629 14.4606 176.047 16.6146 172.543 17.4066L180.067 29.1516V29.2326H175.45H175.456H175.453ZM160.963 14.6226H167.734C171.319 14.6226 175.699 14.2656 175.699 9.28863C175.699 3.95462 171.316 3.91263 167.734 3.91263H160.963V14.6226Z" fill="#1B1B19"/>
<path d="M179.155 0.771484H183.457L192.457 26.2505H192.538L201.094 0.771484H205.153L194.764 29.2385H189.946L179.155 0.771484Z" fill="#1B1B19"/>
<path d="M205.87 29.2326H202.327L212.797 0.765625H217.414L227.884 29.2326H224.026L220.96 20.6376H208.933L205.867 29.2326H205.873H205.87ZM210.01 17.5296H219.841L214.981 3.75363H214.9L210.001 17.5296H210.007H210.01Z" fill="#1B1B19"/>
<path d="M229.599 0.771484H238.872C245.442 0.771484 254.4 2.80549 254.4 14.9855C254.4 27.1655 245.562 29.2385 238.872 29.2385H229.599L229.638 25.4945V4.51548L229.599 0.771484ZM233.217 26.0915H238.833C246.081 26.0915 250.455 23.1845 250.455 15.3395C250.455 7.49449 246.072 3.91248 238.833 3.91248H233.217V26.0915Z" fill="#1B1B19"/>
<path d="M305.44 29.2326L298.831 17.7636H290.947V25.4886L290.986 29.2326H287.281L287.323 25.4886V4.50962L287.281 0.765625H298.945C303.004 0.765625 309.616 1.60563 309.616 9.24663C309.616 14.4606 306.031 16.6146 302.53 17.4066L310.054 29.1516V29.2326H305.437H305.443H305.44ZM290.95 14.6226H297.721C301.306 14.6226 305.686 14.2656 305.686 9.28863C305.686 3.95462 301.303 3.91263 297.721 3.91263H290.95V14.6226Z" fill="#1B1B19"/>
<path d="M272.203 0.00976562C261.847 0.00976562 256.711 8.85077 256.711 16.7768C256.711 24.2678 261.37 30.0008 269.452 30.0008C279.769 30.0008 284.944 21.1208 284.944 13.2338C284.944 5.34677 280.285 0.00976562 272.203 0.00976562ZM275.785 22.7228C269.572 26.7158 262.312 26.4968 259.576 22.2368C256.837 17.9738 259.657 11.2838 265.87 7.29077C272.086 3.29777 279.343 3.51677 282.079 7.77677C284.818 12.0398 281.998 18.7298 275.785 22.7228Z" fill="#1B1B19"/>
<path d="M66.2889 0.00976562C55.9329 0.00976562 50.7969 8.85077 50.7969 16.7768C50.7969 24.2678 55.4559 30.0008 63.5379 30.0008C73.8549 30.0008 79.0299 21.1208 79.0299 13.2338C79.0299 5.34677 74.3679 0.00976562 66.2889 0.00976562ZM69.8679 22.7228C63.6519 26.7158 56.3949 26.4968 53.6589 22.2368C50.9199 17.9738 53.7399 11.2838 59.9529 7.29077C66.1689 3.29777 73.4259 3.51677 76.1619 7.77677C78.9009 12.0398 76.0809 18.7298 69.8679 22.7228Z" fill="#1B1B19"/>
</g>
<defs>
<clipPath id="clip0_425_8219">
<rect width="310.047" height="30" fill="white"/>
</clipPath>
</defs>
</svg>
