<svg version="1.1" id="Capa_1" xmlns="http://www.w3.org/2000/svg" xmlns:xlink="http://www.w3.org/1999/xlink" x="0px" y="0px"
	 viewBox="0 0 182 25" style="enable-background:new 0 0 182 25;" xml:space="preserve" height="600" width="600">
<style type="text/css">
	.st0{fill:#005790;}
</style>
<g>
	<path class="st0" d="M0,24.6V21h2.4c1.3,0,2-0.2,2-1.4V5.6c0-1.1-0.6-1.3-2-1.3H0V0.6h30v9.7h-4.8V8.8c0-3.1-2-4.5-5-4.5h-3.9
		c-1.3,0-2,0.2-2,1.3v5.1h2.1c1.2,0,1.7-0.6,1.7-1.7v-2h4.3v11.3h-4.3v-2.5c0-1-0.6-1.6-1.8-1.6h-2v5.4c0,1.2,0.5,1.4,1.8,1.4h3.6
		c3.6,0,5.8-1.1,5.8-5v-1.5h4.8v10.1L0,24.6L0,24.6z"/>
	<path class="st0" d="M31.6,24.6V21H34c1.3,0,2-0.6,2-1.7V5.8c0-1.1-0.6-1.7-2-1.7h-2.4V0.6h19.3v3.6h-3c-1.3,0-2,0.5-2,1.7v13.5
		c0,1.5,0.3,1.7,2.5,1.7h2.6c3,0,5.2-1.5,5.2-5.1v-2.2h5v10.8C61.3,24.6,31.6,24.6,31.6,24.6z"/>
	<path class="st0" d="M94.8,15h-7v4.3c0,1.1,0.6,1.7,2,1.7h3.4v3.6H73.3V21h2.4c1.3,0,2-0.6,2-1.7V6.6c0-1.6-0.5-2.4-1.9-2.4h-2.5
		V0.6h18.9c8.7,0,13,2.2,13,7C105.2,12.4,102,15,94.8,15z M90.8,4h-0.7c-1.3,0-2.3,0.6-2.3,1.7v5.6h2.6c2.7,0,4.2-1.3,4.2-3.8
		C94.6,5.5,93.1,4,90.8,4z"/>
	<path class="st0" d="M116.2,24.6V21h3.1c1.2,0,1.7-0.7,1.3-1.5l-0.7-1.6h-10.5l-0.7,1.4c-0.5,1.2,0,1.7,1.5,1.7h2.4v3.6H99.4V21
		h0.8c1.2,0,2.4-0.3,2.9-1.3l9.1-19.1h9.7l8.8,18.6c0.5,1.1,1.3,1.7,2.7,1.7h1v3.6L116.2,24.6L116.2,24.6L116.2,24.6z M114.8,6.5
		l-3.7,7.9h7.2L114.8,6.5z"/>
	<path class="st0" d="M135.4,24.6V21h2.8c1.3,0,1.6-0.2,1.6-1.4V6.1c0-1.1-0.6-1.9-2-1.9h-2.4V0.6h18.6v3.6h-2.5
		c-1.3,0-1.6,0.5-1.6,1.7v13.5c0,1.1,0.6,1.7,2,1.7h2.1v3.6L135.4,24.6L135.4,24.6z"/>
	<path class="st0" d="M169.7,24.9c-4.7,0-7.4-1.2-9-1.2c-0.7,0-1.1,0.6-1.1,0.9h-4.1v-9.2h4.6v0.7c0,3.3,3.3,4.8,7.4,4.8
		c3.8,0,5.7-0.9,5.7-2.4c0-1.3-0.8-2-5-2.7l-6.1-1.1c-3.8-0.7-6.8-3-6.8-6.8c0-5.3,5.9-7.8,12.4-7.8c4.2,0,5.7,1.2,6.9,1.2
		c1.1,0,1.4-0.4,1.4-0.9h4.3v8.4h-4.8V8.1c0-2.8-2.7-4.1-6.3-4.1c-3.1,0-5.1,0.3-5.1,1.8c0,1.1,0.7,1.7,4,2.3l6.3,1.2
		c4.1,0.8,7.3,2.7,7.3,6.8C181.8,22.7,175.7,24.9,169.7,24.9z"/>
</g>
</svg>
