<svg id="visual" viewBox="0 0 200 600" width="200" height="600" xmlns="http://www.w3.org/2000/svg"
    xmlns:xlink="http://www.w3.org/1999/xlink" version="1.1">
    <path
        d="M0 137L11.5 142.8C23 148.7 46 160.3 69 159.8C92 159.3 115 146.7 138.2 140.8C161.3 135 184.7 136 207.8 140C231 144 254 151 277 157.3C300 163.7 323 169.3 346 169.7C369 170 392 165 415.2 156.7C438.3 148.3 461.7 136.7 484.8 132.5C508 128.3 531 131.7 554 139C577 146.3 600 157.7 623 158.3C646 159 669 149 692.2 148.7C715.3 148.3 738.7 157.7 761.8 156C785 154.3 808 141.7 831 138.3C854 135 877 141 888.5 144L900 147L900 0L888.5 0C877 0 854 0 831 0C808 0 785 0 761.8 0C738.7 0 715.3 0 692.2 0C669 0 646 0 623 0C600 0 577 0 554 0C531 0 508 0 484.8 0C461.7 0 438.3 0 415.2 0C392 0 369 0 346 0C323 0 300 0 277 0C254 0 231 0 207.8 0C184.7 0 161.3 0 138.2 0C115 0 92 0 69 0C46 0 23 0 11.5 0L0 0Z"
        fill="#c22fa7"></path>
    <path
        d="M0 157L11.5 149.8C23 142.7 46 128.3 69 123.3C92 118.3 115 122.7 138.2 121.8C161.3 121 184.7 115 207.8 115.7C231 116.3 254 123.7 277 131.2C300 138.7 323 146.3 346 146.2C369 146 392 138 415.2 131.3C438.3 124.7 461.7 119.3 484.8 117.3C508 115.3 531 116.7 554 119.3C577 122 600 126 623 128.2C646 130.3 669 130.7 692.2 134.3C715.3 138 738.7 145 761.8 148.8C785 152.7 808 153.3 831 147.7C854 142 877 130 888.5 124L900 118L900 0L888.5 0C877 0 854 0 831 0C808 0 785 0 761.8 0C738.7 0 715.3 0 692.2 0C669 0 646 0 623 0C600 0 577 0 554 0C531 0 508 0 484.8 0C461.7 0 438.3 0 415.2 0C392 0 369 0 346 0C323 0 300 0 277 0C254 0 231 0 207.8 0C184.7 0 161.3 0 138.2 0C115 0 92 0 69 0C46 0 23 0 11.5 0L0 0Z"
        fill="#b42d9f"></path>
    <!-- <path
        d="M0 122L11.5 119.7C23 117.3 46 112.7 69 109.8C92 107 115 106 138.2 110C161.3 114 184.7 123 207.8 126.5C231 130 254 128 277 127.3C300 126.7 323 127.3 346 126.3C369 125.3 392 122.7 415.2 117.2C438.3 111.7 461.7 103.3 484.8 99.5C508 95.7 531 96.3 554 102.3C577 108.3 600 119.7 623 119.7C646 119.7 669 108.3 692.2 103.7C715.3 99 738.7 101 761.8 107.5C785 114 808 125 831 126.8C854 128.7 877 121.3 888.5 117.7L900 114L900 0L888.5 0C877 0 854 0 831 0C808 0 785 0 761.8 0C738.7 0 715.3 0 692.2 0C669 0 646 0 623 0C600 0 577 0 554 0C531 0 508 0 484.8 0C461.7 0 438.3 0 415.2 0C392 0 369 0 346 0C323 0 300 0 277 0C254 0 231 0 207.8 0C184.7 0 161.3 0 138.2 0C115 0 92 0 69 0C46 0 23 0 11.5 0L0 0Z"
        fill="#a72b97"></path>-->
    <path
        d="M0 104L11.5 103.7C23 103.3 46 102.7 69 99.7C92 96.7 115 91.3 138.2 94.2C161.3 97 184.7 108 207.8 109.7C231 111.3 254 103.7 277 102.5C300 101.3 323 106.7 346 107.3C369 108 392 104 415.2 99.2C438.3 94.3 461.7 88.7 484.8 90.5C508 92.3 531 101.7 554 105.5C577 109.3 600 107.7 623 107C646 106.3 669 106.7 692.2 106.5C715.3 106.3 738.7 105.7 761.8 105.7C785 105.7 808 106.3 831 105.8C854 105.3 877 103.7 888.5 102.8L900 102L900 0L888.5 0C877 0 854 0 831 0C808 0 785 0 761.8 0C738.7 0 715.3 0 692.2 0C669 0 646 0 623 0C600 0 577 0 554 0C531 0 508 0 484.8 0C461.7 0 438.3 0 415.2 0C392 0 369 0 346 0C323 0 300 0 277 0C254 0 231 0 207.8 0C184.7 0 161.3 0 138.2 0C115 0 92 0 69 0C46 0 23 0 11.5 0L0 0Z"
        fill="#9a298f"></path>
    <path
        d="M0 88L11.5 86.7C23 85.3 46 82.7 69 83.2C92 83.7 115 87.3 138.2 87.2C161.3 87 184.7 83 207.8 84C231 85 254 91 277 91C300 91 323 85 346 85C369 85 392 91 415.2 90.8C438.3 90.7 461.7 84.3 484.8 79.8C508 75.3 531 72.7 554 75.2C577 77.7 600 85.3 623 88.3C646 91.3 669 89.7 692.2 88.3C715.3 87 738.7 86 761.8 86.3C785 86.7 808 88.3 831 86.3C854 84.3 877 78.7 888.5 75.8L900 73L900 0L888.5 0C877 0 854 0 831 0C808 0 785 0 761.8 0C738.7 0 715.3 0 692.2 0C669 0 646 0 623 0C600 0 577 0 554 0C531 0 508 0 484.8 0C461.7 0 438.3 0 415.2 0C392 0 369 0 346 0C323 0 300 0 277 0C254 0 231 0 207.8 0C184.7 0 161.3 0 138.2 0C115 0 92 0 69 0C46 0 23 0 11.5 0L0 0Z"
        fill="#5d1c64aa"></path>
    <!-- <path
        d="M0 63L11.5 64.7C23 66.3 46 69.7 69 68.3C92 67 115 61 138.2 60.2C161.3 59.3 184.7 63.7 207.8 65.8C231 68 254 68 277 67.5C300 67 323 66 346 65.5C369 65 392 65 415.2 66.5C438.3 68 461.7 71 484.8 72.8C508 74.7 531 75.3 554 74.7C577 74 600 72 623 72.7C646 73.3 669 76.7 692.2 78.7C715.3 80.7 738.7 81.3 761.8 82C785 82.7 808 83.3 831 81.2C854 79 877 74 888.5 71.5L900 69L900 0L888.5 0C877 0 854 0 831 0C808 0 785 0 761.8 0C738.7 0 715.3 0 692.2 0C669 0 646 0 623 0C600 0 577 0 554 0C531 0 508 0 484.8 0C461.7 0 438.3 0 415.2 0C392 0 369 0 346 0C323 0 300 0 277 0C254 0 231 0 207.8 0C184.7 0 161.3 0 138.2 0C115 0 92 0 69 0C46 0 23 0 11.5 0L0 0Z"
        fill="#80247e"></path>-->
    <!--<path
        d="M0 52L11.5 52.2C23 52.3 46 52.7 69 53C92 53.3 115 53.7 138.2 53.5C161.3 53.3 184.7 52.7 207.8 54C231 55.3 254 58.7 277 60.3C300 62 323 62 346 60.5C369 59 392 56 415.2 53.5C438.3 51 461.7 49 484.8 49.7C508 50.3 531 53.7 554 56.2C577 58.7 600 60.3 623 61.5C646 62.7 669 63.3 692.2 61.3C715.3 59.3 738.7 54.7 761.8 52.5C785 50.3 808 50.7 831 50.8C854 51 877 51 888.5 51L900 51L900 0L888.5 0C877 0 854 0 831 0C808 0 785 0 761.8 0C738.7 0 715.3 0 692.2 0C669 0 646 0 623 0C600 0 577 0 554 0C531 0 508 0 484.8 0C461.7 0 438.3 0 415.2 0C392 0 369 0 346 0C323 0 300 0 277 0C254 0 231 0 207.8 0C184.7 0 161.3 0 138.2 0C115 0 92 0 69 0C46 0 23 0 11.5 0L0 0Z"
        fill="#5d1c64"></path>-->
    <!--<path
        d="M0 42L11.5 42C23 42 46 42 69 41.5C92 41 115 40 138.2 39.8C161.3 39.7 184.7 40.3 207.8 41.5C231 42.7 254 44.3 277 45.3C300 46.3 323 46.7 346 44.8C369 43 392 39 415.2 37.2C438.3 35.3 461.7 35.7 484.8 37.3C508 39 531 42 554 42C577 42 600 39 623 39.2C646 39.3 669 42.7 692.2 42.2C715.3 41.7 738.7 37.3 761.8 36.3C785 35.3 808 37.7 831 37.8C854 38 877 36 888.5 35L900 34L900 0L888.5 0C877 0 854 0 831 0C808 0 785 0 761.8 0C738.7 0 715.3 0 692.2 0C669 0 646 0 623 0C600 0 577 0 554 0C531 0 508 0 484.8 0C461.7 0 438.3 0 415.2 0C392 0 369 0 346 0C323 0 300 0 277 0C254 0 231 0 207.8 0C184.7 0 161.3 0 138.2 0C115 0 92 0 69 0C46 0 23 0 11.5 0L0 0Z"
        fill="#681f6d"></path>-->
    <!--<path
        d="M0 30L11.5 28.2C23 26.3 46 22.7 69 21.2C92 19.7 115 20.3 138.2 21.2C161.3 22 184.7 23 207.8 23.2C231 23.3 254 22.7 277 22.7C300 22.7 323 23.3 346 23.7C369 24 392 24 415.2 24.7C438.3 25.3 461.7 26.7 484.8 26C508 25.3 531 22.7 554 23C577 23.3 600 26.7 623 27.7C646 28.7 669 27.3 692.2 26.5C715.3 25.7 738.7 25.3 761.8 25C785 24.7 808 24.3 831 25.2C854 26 877 28 888.5 29L900 30L900 0L888.5 0C877 0 854 0 831 0C808 0 785 0 761.8 0C738.7 0 715.3 0 692.2 0C669 0 646 0 623 0C600 0 577 0 554 0C531 0 508 0 484.8 0C461.7 0 438.3 0 415.2 0C392 0 369 0 346 0C323 0 300 0 277 0C254 0 231 0 207.8 0C184.7 0 161.3 0 138.2 0C115 0 92 0 69 0C46 0 23 0 11.5 0L0 0Z"
        fill="#5d1c64"
        transform="translate(0 30)"></path>-->
    
    <path
        d="M0 445L10.7 445.3C21.3 445.7 42.7 446.3 64.2 443.7C85.7 441 107.3 435 128.8 434.3C150.3 433.7 171.7 438.3 193 445.7C214.3 453 235.7 463 257 460.5C278.3 458 299.7 443 321.2 441.8C342.7 440.7 364.3 453.3 385.8 459.8C407.3 466.3 428.7 466.7 450 462.2C471.3 457.7 492.7 448.3 514.2 449.5C535.7 450.7 557.3 462.3 578.8 463.2C600.3 464 621.7 454 643 447.5C664.3 441 685.7 438 707 441.7C728.3 445.3 749.7 455.7 771.2 460.3C792.7 465 814.3 464 835.8 460.8C857.3 457.7 878.7 452.3 889.3 449.7L900 447L900 601L889.3 601C878.7 601 857.3 601 835.8 601C814.3 601 792.7 601 771.2 601C749.7 601 728.3 601 707 601C685.7 601 664.3 601 643 601C621.7 601 600.3 601 578.8 601C557.3 601 535.7 601 514.2 601C492.7 601 471.3 601 450 601C428.7 601 407.3 601 385.8 601C364.3 601 342.7 601 321.2 601C299.7 601 278.3 601 257 601C235.7 601 214.3 601 193 601C171.7 601 150.3 601 128.8 601C107.3 601 85.7 601 64.2 601C42.7 601 21.3 601 10.7 601L0 601Z"
        fill="#c22fa7"
        transform="translate(0 -60)"></path>
    <path
        d="M0 464L10.7 468.5C21.3 473 42.7 482 64.2 482.7C85.7 483.3 107.3 475.7 128.8 472.8C150.3 470 171.7 472 193 474.7C214.3 477.3 235.7 480.7 257 477.8C278.3 475 299.7 466 321.2 463.2C342.7 460.3 364.3 463.7 385.8 466.5C407.3 469.3 428.7 471.7 450 471C471.3 470.3 492.7 466.7 514.2 469.3C535.7 472 557.3 481 578.8 482C600.3 483 621.7 476 643 470.7C664.3 465.3 685.7 461.7 707 459C728.3 456.3 749.7 454.7 771.2 459.3C792.7 464 814.3 475 835.8 478.8C857.3 482.7 878.7 479.3 889.3 477.7L900 476L900 601L889.3 601C878.7 601 857.3 601 835.8 601C814.3 601 792.7 601 771.2 601C749.7 601 728.3 601 707 601C685.7 601 664.3 601 643 601C621.7 601 600.3 601 578.8 601C557.3 601 535.7 601 514.2 601C492.7 601 471.3 601 450 601C428.7 601 407.3 601 385.8 601C364.3 601 342.7 601 321.2 601C299.7 601 278.3 601 257 601C235.7 601 214.3 601 193 601C171.7 601 150.3 601 128.8 601C107.3 601 85.7 601 64.2 601C42.7 601 21.3 601 10.7 601L0 601Z"
        fill="#b330a5"
        transform="translate(0 -60)"></path>
    <!-- <path
        d="M0 495L10.7 491C21.3 487 42.7 479 64.2 477.8C85.7 476.7 107.3 482.3 128.8 481.5C150.3 480.7 171.7 473.3 193 471.2C214.3 469 235.7 472 257 471.3C278.3 470.7 299.7 466.3 321.2 470.7C342.7 475 364.3 488 385.8 492C407.3 496 428.7 491 450 491.3C471.3 491.7 492.7 497.3 514.2 495.2C535.7 493 557.3 483 578.8 477.8C600.3 472.7 621.7 472.3 643 473C664.3 473.7 685.7 475.3 707 479.3C728.3 483.3 749.7 489.7 771.2 492.8C792.7 496 814.3 496 835.8 490C857.3 484 878.7 472 889.3 466L900 460L900 601L889.3 601C878.7 601 857.3 601 835.8 601C814.3 601 792.7 601 771.2 601C749.7 601 728.3 601 707 601C685.7 601 664.3 601 643 601C621.7 601 600.3 601 578.8 601C557.3 601 535.7 601 514.2 601C492.7 601 471.3 601 450 601C428.7 601 407.3 601 385.8 601C364.3 601 342.7 601 321.2 601C299.7 601 278.3 601 257 601C235.7 601 214.3 601 193 601C171.7 601 150.3 601 128.8 601C107.3 601 85.7 601 64.2 601C42.7 601 21.3 601 10.7 601L0 601Z"
        fill="#a331a2"
        transform="translate(0 -70)"></path>-->
    <path
        d="M0 496L10.7 499C21.3 502 42.7 508 64.2 508.3C85.7 508.7 107.3 503.3 128.8 500C150.3 496.7 171.7 495.3 193 497.8C214.3 500.3 235.7 506.7 257 508.5C278.3 510.3 299.7 507.7 321.2 502.3C342.7 497 364.3 489 385.8 486.3C407.3 483.7 428.7 486.3 450 489.8C471.3 493.3 492.7 497.7 514.2 497.5C535.7 497.3 557.3 492.7 578.8 489.5C600.3 486.3 621.7 484.7 643 483.2C664.3 481.7 685.7 480.3 707 485.2C728.3 490 749.7 501 771.2 502.2C792.7 503.3 814.3 494.7 835.8 491C857.3 487.3 878.7 488.7 889.3 489.3L900 490L900 601L889.3 601C878.7 601 857.3 601 835.8 601C814.3 601 792.7 601 771.2 601C749.7 601 728.3 601 707 601C685.7 601 664.3 601 643 601C621.7 601 600.3 601 578.8 601C557.3 601 535.7 601 514.2 601C492.7 601 471.3 601 450 601C428.7 601 407.3 601 385.8 601C364.3 601 342.7 601 321.2 601C299.7 601 278.3 601 257 601C235.7 601 214.3 601 193 601C171.7 601 150.3 601 128.8 601C107.3 601 85.7 601 64.2 601C42.7 601 21.3 601 10.7 601L0 601Z"
        fill="#93319f"
        transform="translate(0 -70)"></path>
    <path
        d="M0 518L10.7 519.7C21.3 521.3 42.7 524.7 64.2 526.3C85.7 528 107.3 528 128.8 523.2C150.3 518.3 171.7 508.7 193 506.5C214.3 504.3 235.7 509.7 257 513.8C278.3 518 299.7 521 321.2 519.2C342.7 517.3 364.3 510.7 385.8 507.5C407.3 504.3 428.7 504.7 450 507C471.3 509.3 492.7 513.7 514.2 513.2C535.7 512.7 557.3 507.3 578.8 506.5C600.3 505.7 621.7 509.3 643 512C664.3 514.7 685.7 516.3 707 516.5C728.3 516.7 749.7 515.3 771.2 511.7C792.7 508 814.3 502 835.8 501.8C857.3 501.7 878.7 507.3 889.3 510.2L900 513L900 601L889.3 601C878.7 601 857.3 601 835.8 601C814.3 601 792.7 601 771.2 601C749.7 601 728.3 601 707 601C685.7 601 664.3 601 643 601C621.7 601 600.3 601 578.8 601C557.3 601 535.7 601 514.2 601C492.7 601 471.3 601 450 601C428.7 601 407.3 601 385.8 601C364.3 601 342.7 601 321.2 601C299.7 601 278.3 601 257 601C235.7 601 214.3 601 193 601C171.7 601 150.3 601 128.8 601C107.3 601 85.7 601 64.2 601C42.7 601 21.3 601 10.7 601L0 601Z"
        fill="#84319b"
        transform="translate(0 -60)"></path>
    <!-- <path
        d="M0 537L10.7 533.7C21.3 530.3 42.7 523.7 64.2 522.7C85.7 521.7 107.3 526.3 128.8 529.3C150.3 532.3 171.7 533.7 193 532.2C214.3 530.7 235.7 526.3 257 524.2C278.3 522 299.7 522 321.2 521.2C342.7 520.3 364.3 518.7 385.8 518.3C407.3 518 428.7 519 450 520C471.3 521 492.7 522 514.2 524.5C535.7 527 557.3 531 578.8 533.2C600.3 535.3 621.7 535.7 643 534.5C664.3 533.3 685.7 530.7 707 529.2C728.3 527.7 749.7 527.3 771.2 529.2C792.7 531 814.3 535 835.8 537.3C857.3 539.7 878.7 540.3 889.3 540.7L900 541L900 601L889.3 601C878.7 601 857.3 601 835.8 601C814.3 601 792.7 601 771.2 601C749.7 601 728.3 601 707 601C685.7 601 664.3 601 643 601C621.7 601 600.3 601 578.8 601C557.3 601 535.7 601 514.2 601C492.7 601 471.3 601 450 601C428.7 601 407.3 601 385.8 601C364.3 601 342.7 601 321.2 601C299.7 601 278.3 601 257 601C235.7 601 214.3 601 193 601C171.7 601 150.3 601 128.8 601C107.3 601 85.7 601 64.2 601C42.7 601 21.3 601 10.7 601L0 601Z"
        fill="#753196"
        transform="translate(0 -70)"></path>-->
    <path
        d="M0 548L10.7 547C21.3 546 42.7 544 64.2 543.8C85.7 543.7 107.3 545.3 128.8 544.2C150.3 543 171.7 539 193 537.5C214.3 536 235.7 537 257 539.8C278.3 542.7 299.7 547.3 321.2 549C342.7 550.7 364.3 549.3 385.8 549.3C407.3 549.3 428.7 550.7 450 549.7C471.3 548.7 492.7 545.3 514.2 545.3C535.7 545.3 557.3 548.7 578.8 549.5C600.3 550.3 621.7 548.7 643 545.5C664.3 542.3 685.7 537.7 707 538.5C728.3 539.3 749.7 545.7 771.2 549.3C792.7 553 814.3 554 835.8 553.2C857.3 552.3 878.7 549.7 889.3 548.3L900 547L900 601L889.3 601C878.7 601 857.3 601 835.8 601C814.3 601 792.7 601 771.2 601C749.7 601 728.3 601 707 601C685.7 601 664.3 601 643 601C621.7 601 600.3 601 578.8 601C557.3 601 535.7 601 514.2 601C492.7 601 471.3 601 450 601C428.7 601 407.3 601 385.8 601C364.3 601 342.7 601 321.2 601C299.7 601 278.3 601 257 601C235.7 601 214.3 601 193 601C171.7 601 150.3 601 128.8 601C107.3 601 85.7 601 64.2 601C42.7 601 21.3 601 10.7 601L0 601Z"
        fill="#663091"
        transform="translate(0 -70)"></path>
    <!-- <path
        d="M0 556L10.7 558C21.3 560 42.7 564 64.2 564C85.7 564 107.3 560 128.8 559.7C150.3 559.3 171.7 562.7 193 564.2C214.3 565.7 235.7 565.3 257 564.3C278.3 563.3 299.7 561.7 321.2 559.8C342.7 558 364.3 556 385.8 557.3C407.3 558.7 428.7 563.3 450 564.8C471.3 566.3 492.7 564.7 514.2 563.2C535.7 561.7 557.3 560.3 578.8 558.2C600.3 556 621.7 553 643 552C664.3 551 685.7 552 707 554.5C728.3 557 749.7 561 771.2 562.5C792.7 564 814.3 563 835.8 561.2C857.3 559.3 878.7 556.7 889.3 555.3L900 554L900 601L889.3 601C878.7 601 857.3 601 835.8 601C814.3 601 792.7 601 771.2 601C749.7 601 728.3 601 707 601C685.7 601 664.3 601 643 601C621.7 601 600.3 601 578.8 601C557.3 601 535.7 601 514.2 601C492.7 601 471.3 601 450 601C428.7 601 407.3 601 385.8 601C364.3 601 342.7 601 321.2 601C299.7 601 278.3 601 257 601C235.7 601 214.3 601 193 601C171.7 601 150.3 601 128.8 601C107.3 601 85.7 601 64.2 601C42.7 601 21.3 601 10.7 601L0 601Z"
        fill="#562f8b"
        transform="translate(0 -70)"></path>-->
    <path
        d="M0 579L10.7 578.5C21.3 578 42.7 577 64.2 575.8C85.7 574.7 107.3 573.3 128.8 573.5C150.3 573.7 171.7 575.3 193 575.3C214.3 575.3 235.7 573.7 257 574.3C278.3 575 299.7 578 321.2 578.2C342.7 578.3 364.3 575.7 385.8 575.7C407.3 575.7 428.7 578.3 450 579.7C471.3 581 492.7 581 514.2 579.2C535.7 577.3 557.3 573.7 578.8 573.5C600.3 573.3 621.7 576.7 643 576.8C664.3 577 685.7 574 707 572.5C728.3 571 749.7 571 771.2 571C792.7 571 814.3 571 835.8 570.7C857.3 570.3 878.7 569.7 889.3 569.3L900 569L900 601L889.3 601C878.7 601 857.3 601 835.8 601C814.3 601 792.7 601 771.2 601C749.7 601 728.3 601 707 601C685.7 601 664.3 601 643 601C621.7 601 600.3 601 578.8 601C557.3 601 535.7 601 514.2 601C492.7 601 471.3 601 450 601C428.7 601 407.3 601 385.8 601C364.3 601 342.7 601 321.2 601C299.7 601 278.3 601 257 601C235.7 601 214.3 601 193 601C171.7 601 150.3 601 128.8 601C107.3 601 85.7 601 64.2 601C42.7 601 21.3 601 10.7 601L0 601Z"
        fill="#472d85"
        transform="translate(0 -60)"></path>
</svg>