<svg id="visual" viewBox="0 0 900 600" width="900" height="600" xmlns="http://www.w3.org/2000/svg"
    xmlns:xlink="http://www.w3.org/1999/xlink" version="1.1">
    <path
        d="M0 445L10.7 445.3C21.3 445.7 42.7 446.3 64.2 443.7C85.7 441 107.3 435 128.8 434.3C150.3 433.7 171.7 438.3 193 445.7C214.3 453 235.7 463 257 460.5C278.3 458 299.7 443 321.2 441.8C342.7 440.7 364.3 453.3 385.8 459.8C407.3 466.3 428.7 466.7 450 462.2C471.3 457.7 492.7 448.3 514.2 449.5C535.7 450.7 557.3 462.3 578.8 463.2C600.3 464 621.7 454 643 447.5C664.3 441 685.7 438 707 441.7C728.3 445.3 749.7 455.7 771.2 460.3C792.7 465 814.3 464 835.8 460.8C857.3 457.7 878.7 452.3 889.3 449.7L900 447L900 601L889.3 601C878.7 601 857.3 601 835.8 601C814.3 601 792.7 601 771.2 601C749.7 601 728.3 601 707 601C685.7 601 664.3 601 643 601C621.7 601 600.3 601 578.8 601C557.3 601 535.7 601 514.2 601C492.7 601 471.3 601 450 601C428.7 601 407.3 601 385.8 601C364.3 601 342.7 601 321.2 601C299.7 601 278.3 601 257 601C235.7 601 214.3 601 193 601C171.7 601 150.3 601 128.8 601C107.3 601 85.7 601 64.2 601C42.7 601 21.3 601 10.7 601L0 601Z"
        fill="#c22fa7"></path>
    <path
        d="M0 464L10.7 468.5C21.3 473 42.7 482 64.2 482.7C85.7 483.3 107.3 475.7 128.8 472.8C150.3 470 171.7 472 193 474.7C214.3 477.3 235.7 480.7 257 477.8C278.3 475 299.7 466 321.2 463.2C342.7 460.3 364.3 463.7 385.8 466.5C407.3 469.3 428.7 471.7 450 471C471.3 470.3 492.7 466.7 514.2 469.3C535.7 472 557.3 481 578.8 482C600.3 483 621.7 476 643 470.7C664.3 465.3 685.7 461.7 707 459C728.3 456.3 749.7 454.7 771.2 459.3C792.7 464 814.3 475 835.8 478.8C857.3 482.7 878.7 479.3 889.3 477.7L900 476L900 601L889.3 601C878.7 601 857.3 601 835.8 601C814.3 601 792.7 601 771.2 601C749.7 601 728.3 601 707 601C685.7 601 664.3 601 643 601C621.7 601 600.3 601 578.8 601C557.3 601 535.7 601 514.2 601C492.7 601 471.3 601 450 601C428.7 601 407.3 601 385.8 601C364.3 601 342.7 601 321.2 601C299.7 601 278.3 601 257 601C235.7 601 214.3 601 193 601C171.7 601 150.3 601 128.8 601C107.3 601 85.7 601 64.2 601C42.7 601 21.3 601 10.7 601L0 601Z"
        fill="#b330a5"></path>
    <path
        d="M0 495L10.7 491C21.3 487 42.7 479 64.2 477.8C85.7 476.7 107.3 482.3 128.8 481.5C150.3 480.7 171.7 473.3 193 471.2C214.3 469 235.7 472 257 471.3C278.3 470.7 299.7 466.3 321.2 470.7C342.7 475 364.3 488 385.8 492C407.3 496 428.7 491 450 491.3C471.3 491.7 492.7 497.3 514.2 495.2C535.7 493 557.3 483 578.8 477.8C600.3 472.7 621.7 472.3 643 473C664.3 473.7 685.7 475.3 707 479.3C728.3 483.3 749.7 489.7 771.2 492.8C792.7 496 814.3 496 835.8 490C857.3 484 878.7 472 889.3 466L900 460L900 601L889.3 601C878.7 601 857.3 601 835.8 601C814.3 601 792.7 601 771.2 601C749.7 601 728.3 601 707 601C685.7 601 664.3 601 643 601C621.7 601 600.3 601 578.8 601C557.3 601 535.7 601 514.2 601C492.7 601 471.3 601 450 601C428.7 601 407.3 601 385.8 601C364.3 601 342.7 601 321.2 601C299.7 601 278.3 601 257 601C235.7 601 214.3 601 193 601C171.7 601 150.3 601 128.8 601C107.3 601 85.7 601 64.2 601C42.7 601 21.3 601 10.7 601L0 601Z"
        fill="#a331a2"></path>
    <path
        d="M0 496L10.7 499C21.3 502 42.7 508 64.2 508.3C85.7 508.7 107.3 503.3 128.8 500C150.3 496.7 171.7 495.3 193 497.8C214.3 500.3 235.7 506.7 257 508.5C278.3 510.3 299.7 507.7 321.2 502.3C342.7 497 364.3 489 385.8 486.3C407.3 483.7 428.7 486.3 450 489.8C471.3 493.3 492.7 497.7 514.2 497.5C535.7 497.3 557.3 492.7 578.8 489.5C600.3 486.3 621.7 484.7 643 483.2C664.3 481.7 685.7 480.3 707 485.2C728.3 490 749.7 501 771.2 502.2C792.7 503.3 814.3 494.7 835.8 491C857.3 487.3 878.7 488.7 889.3 489.3L900 490L900 601L889.3 601C878.7 601 857.3 601 835.8 601C814.3 601 792.7 601 771.2 601C749.7 601 728.3 601 707 601C685.7 601 664.3 601 643 601C621.7 601 600.3 601 578.8 601C557.3 601 535.7 601 514.2 601C492.7 601 471.3 601 450 601C428.7 601 407.3 601 385.8 601C364.3 601 342.7 601 321.2 601C299.7 601 278.3 601 257 601C235.7 601 214.3 601 193 601C171.7 601 150.3 601 128.8 601C107.3 601 85.7 601 64.2 601C42.7 601 21.3 601 10.7 601L0 601Z"
        fill="#93319f"></path>
    <path
        d="M0 518L10.7 519.7C21.3 521.3 42.7 524.7 64.2 526.3C85.7 528 107.3 528 128.8 523.2C150.3 518.3 171.7 508.7 193 506.5C214.3 504.3 235.7 509.7 257 513.8C278.3 518 299.7 521 321.2 519.2C342.7 517.3 364.3 510.7 385.8 507.5C407.3 504.3 428.7 504.7 450 507C471.3 509.3 492.7 513.7 514.2 513.2C535.7 512.7 557.3 507.3 578.8 506.5C600.3 505.7 621.7 509.3 643 512C664.3 514.7 685.7 516.3 707 516.5C728.3 516.7 749.7 515.3 771.2 511.7C792.7 508 814.3 502 835.8 501.8C857.3 501.7 878.7 507.3 889.3 510.2L900 513L900 601L889.3 601C878.7 601 857.3 601 835.8 601C814.3 601 792.7 601 771.2 601C749.7 601 728.3 601 707 601C685.7 601 664.3 601 643 601C621.7 601 600.3 601 578.8 601C557.3 601 535.7 601 514.2 601C492.7 601 471.3 601 450 601C428.7 601 407.3 601 385.8 601C364.3 601 342.7 601 321.2 601C299.7 601 278.3 601 257 601C235.7 601 214.3 601 193 601C171.7 601 150.3 601 128.8 601C107.3 601 85.7 601 64.2 601C42.7 601 21.3 601 10.7 601L0 601Z"
        fill="#84319b"></path>
    <path
        d="M0 537L10.7 533.7C21.3 530.3 42.7 523.7 64.2 522.7C85.7 521.7 107.3 526.3 128.8 529.3C150.3 532.3 171.7 533.7 193 532.2C214.3 530.7 235.7 526.3 257 524.2C278.3 522 299.7 522 321.2 521.2C342.7 520.3 364.3 518.7 385.8 518.3C407.3 518 428.7 519 450 520C471.3 521 492.7 522 514.2 524.5C535.7 527 557.3 531 578.8 533.2C600.3 535.3 621.7 535.7 643 534.5C664.3 533.3 685.7 530.7 707 529.2C728.3 527.7 749.7 527.3 771.2 529.2C792.7 531 814.3 535 835.8 537.3C857.3 539.7 878.7 540.3 889.3 540.7L900 541L900 601L889.3 601C878.7 601 857.3 601 835.8 601C814.3 601 792.7 601 771.2 601C749.7 601 728.3 601 707 601C685.7 601 664.3 601 643 601C621.7 601 600.3 601 578.8 601C557.3 601 535.7 601 514.2 601C492.7 601 471.3 601 450 601C428.7 601 407.3 601 385.8 601C364.3 601 342.7 601 321.2 601C299.7 601 278.3 601 257 601C235.7 601 214.3 601 193 601C171.7 601 150.3 601 128.8 601C107.3 601 85.7 601 64.2 601C42.7 601 21.3 601 10.7 601L0 601Z"
        fill="#753196"></path>
    <path
        d="M0 548L10.7 547C21.3 546 42.7 544 64.2 543.8C85.7 543.7 107.3 545.3 128.8 544.2C150.3 543 171.7 539 193 537.5C214.3 536 235.7 537 257 539.8C278.3 542.7 299.7 547.3 321.2 549C342.7 550.7 364.3 549.3 385.8 549.3C407.3 549.3 428.7 550.7 450 549.7C471.3 548.7 492.7 545.3 514.2 545.3C535.7 545.3 557.3 548.7 578.8 549.5C600.3 550.3 621.7 548.7 643 545.5C664.3 542.3 685.7 537.7 707 538.5C728.3 539.3 749.7 545.7 771.2 549.3C792.7 553 814.3 554 835.8 553.2C857.3 552.3 878.7 549.7 889.3 548.3L900 547L900 601L889.3 601C878.7 601 857.3 601 835.8 601C814.3 601 792.7 601 771.2 601C749.7 601 728.3 601 707 601C685.7 601 664.3 601 643 601C621.7 601 600.3 601 578.8 601C557.3 601 535.7 601 514.2 601C492.7 601 471.3 601 450 601C428.7 601 407.3 601 385.8 601C364.3 601 342.7 601 321.2 601C299.7 601 278.3 601 257 601C235.7 601 214.3 601 193 601C171.7 601 150.3 601 128.8 601C107.3 601 85.7 601 64.2 601C42.7 601 21.3 601 10.7 601L0 601Z"
        fill="#663091"></path>
    <path
        d="M0 556L10.7 558C21.3 560 42.7 564 64.2 564C85.7 564 107.3 560 128.8 559.7C150.3 559.3 171.7 562.7 193 564.2C214.3 565.7 235.7 565.3 257 564.3C278.3 563.3 299.7 561.7 321.2 559.8C342.7 558 364.3 556 385.8 557.3C407.3 558.7 428.7 563.3 450 564.8C471.3 566.3 492.7 564.7 514.2 563.2C535.7 561.7 557.3 560.3 578.8 558.2C600.3 556 621.7 553 643 552C664.3 551 685.7 552 707 554.5C728.3 557 749.7 561 771.2 562.5C792.7 564 814.3 563 835.8 561.2C857.3 559.3 878.7 556.7 889.3 555.3L900 554L900 601L889.3 601C878.7 601 857.3 601 835.8 601C814.3 601 792.7 601 771.2 601C749.7 601 728.3 601 707 601C685.7 601 664.3 601 643 601C621.7 601 600.3 601 578.8 601C557.3 601 535.7 601 514.2 601C492.7 601 471.3 601 450 601C428.7 601 407.3 601 385.8 601C364.3 601 342.7 601 321.2 601C299.7 601 278.3 601 257 601C235.7 601 214.3 601 193 601C171.7 601 150.3 601 128.8 601C107.3 601 85.7 601 64.2 601C42.7 601 21.3 601 10.7 601L0 601Z"
        fill="#562f8b"></path>
    <path
        d="M0 579L10.7 578.5C21.3 578 42.7 577 64.2 575.8C85.7 574.7 107.3 573.3 128.8 573.5C150.3 573.7 171.7 575.3 193 575.3C214.3 575.3 235.7 573.7 257 574.3C278.3 575 299.7 578 321.2 578.2C342.7 578.3 364.3 575.7 385.8 575.7C407.3 575.7 428.7 578.3 450 579.7C471.3 581 492.7 581 514.2 579.2C535.7 577.3 557.3 573.7 578.8 573.5C600.3 573.3 621.7 576.7 643 576.8C664.3 577 685.7 574 707 572.5C728.3 571 749.7 571 771.2 571C792.7 571 814.3 571 835.8 570.7C857.3 570.3 878.7 569.7 889.3 569.3L900 569L900 601L889.3 601C878.7 601 857.3 601 835.8 601C814.3 601 792.7 601 771.2 601C749.7 601 728.3 601 707 601C685.7 601 664.3 601 643 601C621.7 601 600.3 601 578.8 601C557.3 601 535.7 601 514.2 601C492.7 601 471.3 601 450 601C428.7 601 407.3 601 385.8 601C364.3 601 342.7 601 321.2 601C299.7 601 278.3 601 257 601C235.7 601 214.3 601 193 601C171.7 601 150.3 601 128.8 601C107.3 601 85.7 601 64.2 601C42.7 601 21.3 601 10.7 601L0 601Z"
        fill="#472d85"></path>
</svg>