<svg id="visual" viewBox="0 0 540 960" width="540" height="960" xmlns="http://www.w3.org/2000/svg"
    xmlns:xlink="http://www.w3.org/1999/xlink" version="1.1">
    <rect x="0" y="0" width="540" height="960" fill="none"></rect>
    <path
        d="M0 348L45 335.3C90 322.7 180 297.3 270 332.5C360 367.7 450 463.3 495 511.2L540 559L540 961L495 961C450 961 360 961 270 961C180 961 90 961 45 961L0 961Z"
        fill="#fa7268"></path>
    <path
        d="M0 223L45 305.8C90 388.7 180 554.3 270 619C360 683.7 450 647.3 495 629.2L540 611L540 961L495 961C450 961 360 961 270 961C180 961 90 961 45 961L0 961Z"
        fill="#f66b68"></path>
    <path
        d="M0 622L45 605C90 588 180 554 270 485.2C360 416.3 450 312.7 495 260.8L540 209L540 961L495 961C450 961 360 961 270 961C180 961 90 961 45 961L0 961Z"
        fill="#f26467"></path>
    <path
        d="M0 281L45 357.5C90 434 180 587 270 606C360 625 450 510 495 452.5L540 395L540 961L495 961C450 961 360 961 270 961C180 961 90 961 45 961L0 961Z"
        fill="#ee5d67"></path>
    <path
        d="M0 342L45 377.3C90 412.7 180 483.3 270 499.3C360 515.3 450 476.7 495 457.3L540 438L540 961L495 961C450 961 360 961 270 961C180 961 90 961 45 961L0 961Z"
        fill="#ea5667"></path>
    <path
        d="M0 802L45 747.8C90 693.7 180 585.3 270 537.7C360 490 450 503 495 509.5L540 516L540 961L495 961C450 961 360 961 270 961C180 961 90 961 45 961L0 961Z"
        fill="#e54f67"></path>
    <path
        d="M0 702L45 697.8C90 693.7 180 685.3 270 651.2C360 617 450 557 495 527L540 497L540 961L495 961C450 961 360 961 270 961C180 961 90 961 45 961L0 961Z"
        fill="#e14867"></path>
    <path
        d="M0 854L45 853.2C90 852.3 180 850.7 270 810.7C360 770.7 450 692.3 495 653.2L540 614L540 961L495 961C450 961 360 961 270 961C180 961 90 961 45 961L0 961Z"
        fill="#dc4167"></path>
    <path
        d="M0 802L45 785.2C90 768.3 180 734.7 270 726.8C360 719 450 737 495 746L540 755L540 961L495 961C450 961 360 961 270 961C180 961 90 961 45 961L0 961Z"
        fill="#d73a67"></path>
    <path
        d="M0 702L45 700.2C90 698.3 180 694.7 270 707.7C360 720.7 450 750.3 495 765.2L540 780L540 961L495 961C450 961 360 961 270 961C180 961 90 961 45 961L0 961Z"
        fill="#d13367"></path>
    <path
        d="M0 834L45 838.3C90 842.7 180 851.3 270 854.2C360 857 450 854 495 852.5L540 851L540 961L495 961C450 961 360 961 270 961C180 961 90 961 45 961L0 961Z"
        fill="#cc2b68"></path>
    <path
        d="M0 839L45 839.3C90 839.7 180 840.3 270 838.5C360 836.7 450 832.3 495 830.2L540 828L540 961L495 961C450 961 360 961 270 961C180 961 90 961 45 961L0 961Z"
        fill="#c62368"></path>
</svg>