<svg id="visual" viewBox="0 0 960 540" width="960" height="540" xmlns="http://www.w3.org/2000/svg" xmlns:xlink="http://www.w3.org/1999/xlink" version="1.1"><rect x="0" y="0" width="960" height="540" fill="#001220"></rect><path d="M0 227L20 226.7C40 226.3 80 225.7 120 224C160 222.3 200 219.7 240 207.3C280 195 320 173 360 185C400 197 440 243 480 229.8C520 216.7 560 144.3 600 150.8C640 157.3 680 242.7 720 280.3C760 318 800 308 840 317.2C880 326.3 920 354.7 940 368.8L960 383L960 541L940 541C920 541 880 541 840 541C800 541 760 541 720 541C680 541 640 541 600 541C560 541 520 541 480 541C440 541 400 541 360 541C320 541 280 541 240 541C200 541 160 541 120 541C80 541 40 541 20 541L0 541Z" fill="#fa7268"></path><path d="M0 234L20 260.5C40 287 80 340 120 363.2C160 386.3 200 379.7 240 370.3C280 361 320 349 360 336.7C400 324.3 440 311.7 480 313.5C520 315.3 560 331.7 600 305.3C640 279 680 210 720 170C760 130 800 119 840 142C880 165 920 222 940 250.5L960 279L960 541L940 541C920 541 880 541 840 541C800 541 760 541 720 541C680 541 640 541 600 541C560 541 520 541 480 541C440 541 400 541 360 541C320 541 280 541 240 541C200 541 160 541 120 541C80 541 40 541 20 541L0 541Z" fill="#f66b68"></path><path d="M0 146L20 169.3C40 192.7 80 239.3 120 268.7C160 298 200 310 240 328.3C280 346.7 320 371.3 360 385C400 398.7 440 401.3 480 358.3C520 315.3 560 226.7 600 209.3C640 192 680 246 720 262.7C760 279.3 800 258.7 840 269.7C880 280.7 920 323.3 940 344.7L960 366L960 541L940 541C920 541 880 541 840 541C800 541 760 541 720 541C680 541 640 541 600 541C560 541 520 541 480 541C440 541 400 541 360 541C320 541 280 541 240 541C200 541 160 541 120 541C80 541 40 541 20 541L0 541Z" fill="#f26467"></path><path d="M0 210L20 234.2C40 258.3 80 306.7 120 314.3C160 322 200 289 240 298.3C280 307.7 320 359.3 360 372.5C400 385.7 440 360.3 480 366.3C520 372.3 560 409.7 600 422.5C640 435.3 680 423.7 720 383.2C760 342.7 800 273.3 840 258.3C880 243.3 920 282.7 940 302.3L960 322L960 541L940 541C920 541 880 541 840 541C800 541 760 541 720 541C680 541 640 541 600 541C560 541 520 541 480 541C440 541 400 541 360 541C320 541 280 541 240 541C200 541 160 541 120 541C80 541 40 541 20 541L0 541Z" fill="#ee5d67"></path><path d="M0 284L20 310.8C40 337.7 80 391.3 120 390.8C160 390.3 200 335.7 240 323C280 310.3 320 339.7 360 330.3C400 321 440 273 480 272.3C520 271.7 560 318.3 600 342.3C640 366.3 680 367.7 720 367.8C760 368 800 367 840 353.7C880 340.3 920 314.7 940 301.8L960 289L960 541L940 541C920 541 880 541 840 541C800 541 760 541 720 541C680 541 640 541 600 541C560 541 520 541 480 541C440 541 400 541 360 541C320 541 280 541 240 541C200 541 160 541 120 541C80 541 40 541 20 541L0 541Z" fill="#ea5667"></path><path d="M0 473L20 457.8C40 442.7 80 412.3 120 370.7C160 329 200 276 240 262.3C280 248.7 320 274.3 360 305.7C400 337 440 374 480 369C520 364 560 317 600 293.5C640 270 680 270 720 269.2C760 268.3 800 266.7 840 297.7C880 328.7 920 392.3 940 424.2L960 456L960 541L940 541C920 541 880 541 840 541C800 541 760 541 720 541C680 541 640 541 600 541C560 541 520 541 480 541C440 541 400 541 360 541C320 541 280 541 240 541C200 541 160 541 120 541C80 541 40 541 20 541L0 541Z" fill="#e54f67"></path><path d="M0 300L20 297.8C40 295.7 80 291.3 120 300.7C160 310 200 333 240 334.8C280 336.7 320 317.3 360 321C400 324.7 440 351.3 480 365.7C520 380 560 382 600 368.7C640 355.3 680 326.7 720 337C760 347.3 800 396.7 840 409.7C880 422.7 920 399.3 940 387.7L960 376L960 541L940 541C920 541 880 541 840 541C800 541 760 541 720 541C680 541 640 541 600 541C560 541 520 541 480 541C440 541 400 541 360 541C320 541 280 541 240 541C200 541 160 541 120 541C80 541 40 541 20 541L0 541Z" fill="#e14867"></path><path d="M0 384L20 391.8C40 399.7 80 415.3 120 425.7C160 436 200 441 240 449C280 457 320 468 360 468C400 468 440 457 480 428.8C520 400.7 560 355.3 600 347.7C640 340 680 370 720 387.7C760 405.3 800 410.7 840 419.5C880 428.3 920 440.7 940 446.8L960 453L960 541L940 541C920 541 880 541 840 541C800 541 760 541 720 541C680 541 640 541 600 541C560 541 520 541 480 541C440 541 400 541 360 541C320 541 280 541 240 541C200 541 160 541 120 541C80 541 40 541 20 541L0 541Z" fill="#dc4167"></path><path d="M0 343L20 363.2C40 383.3 80 423.7 120 424.7C160 425.7 200 387.3 240 385C280 382.7 320 416.3 360 424.8C400 433.3 440 416.7 480 413.3C520 410 560 420 600 422.7C640 425.3 680 420.7 720 414.7C760 408.7 800 401.3 840 390C880 378.7 920 363.3 940 355.7L960 348L960 541L940 541C920 541 880 541 840 541C800 541 760 541 720 541C680 541 640 541 600 541C560 541 520 541 480 541C440 541 400 541 360 541C320 541 280 541 240 541C200 541 160 541 120 541C80 541 40 541 20 541L0 541Z" fill="#d73a67"></path><path d="M0 425L20 421.8C40 418.7 80 412.3 120 419.7C160 427 200 448 240 445.2C280 442.3 320 415.7 360 409C400 402.3 440 415.7 480 417.2C520 418.7 560 408.3 600 400.3C640 392.3 680 386.7 720 393.2C760 399.7 800 418.3 840 429C880 439.7 920 442.3 940 443.7L960 445L960 541L940 541C920 541 880 541 840 541C800 541 760 541 720 541C680 541 640 541 600 541C560 541 520 541 480 541C440 541 400 541 360 541C320 541 280 541 240 541C200 541 160 541 120 541C80 541 40 541 20 541L0 541Z" fill="#d13367"></path><path d="M0 434L20 447.7C40 461.3 80 488.7 120 499.7C160 510.7 200 505.3 240 499.5C280 493.7 320 487.3 360 478.7C400 470 440 459 480 453.5C520 448 560 448 600 451.2C640 454.3 680 460.7 720 460.5C760 460.3 800 453.7 840 449.2C880 444.7 920 442.3 940 441.2L960 440L960 541L940 541C920 541 880 541 840 541C800 541 760 541 720 541C680 541 640 541 600 541C560 541 520 541 480 541C440 541 400 541 360 541C320 541 280 541 240 541C200 541 160 541 120 541C80 541 40 541 20 541L0 541Z" fill="#cc2b68"></path><path d="M0 490L20 496.5C40 503 80 516 120 513.5C160 511 200 493 240 486.3C280 479.7 320 484.3 360 488.5C400 492.7 440 496.3 480 499.7C520 503 560 506 600 504.7C640 503.3 680 497.7 720 498.5C760 499.3 800 506.7 840 510.7C880 514.7 920 515.3 940 515.7L960 516L960 541L940 541C920 541 880 541 840 541C800 541 760 541 720 541C680 541 640 541 600 541C560 541 520 541 480 541C440 541 400 541 360 541C320 541 280 541 240 541C200 541 160 541 120 541C80 541 40 541 20 541L0 541Z" fill="#c62368"></path></svg>