<svg id="visual" viewBox="0 0 960 540" width="960" height="540" xmlns="http://www.w3.org/2000/svg"
    xmlns:xlink="http://www.w3.org/1999/xlink" version="1.1">
    <rect x="0" y="0" width="960" height="540" fill="none"></rect>
    <path
        d="M0 477L26.7 474.5C53.3 472 106.7 467 160 466C213.3 465 266.7 468 320 465.5C373.3 463 426.7 455 480 454.2C533.3 453.3 586.7 459.7 640 460.7C693.3 461.7 746.7 457.3 800 455.2C853.3 453 906.7 453 933.3 453L960 453L960 541L933.3 541C906.7 541 853.3 541 800 541C746.7 541 693.3 541 640 541C586.7 541 533.3 541 480 541C426.7 541 373.3 541 320 541C266.7 541 213.3 541 160 541C106.7 541 53.3 541 26.7 541L0 541Z"
        fill="#472D85"></path>
    <path
        d="M0 467L26.7 468.8C53.3 470.7 106.7 474.3 160 474.5C213.3 474.7 266.7 471.3 320 472.8C373.3 474.3 426.7 480.7 480 479.8C533.3 479 586.7 471 640 466.7C693.3 462.3 746.7 461.7 800 464.2C853.3 466.7 906.7 472.3 933.3 475.2L960 478L960 541L933.3 541C906.7 541 853.3 541 800 541C746.7 541 693.3 541 640 541C586.7 541 533.3 541 480 541C426.7 541 373.3 541 320 541C266.7 541 213.3 541 160 541C106.7 541 53.3 541 26.7 541L0 541Z"
        fill="#7A19B6"></path>
    <path
        d="M0 502L26.7 501C53.3 500 106.7 498 160 495.5C213.3 493 266.7 490 320 488C373.3 486 426.7 485 480 484.3C533.3 483.7 586.7 483.3 640 485.3C693.3 487.3 746.7 491.7 800 491.7C853.3 491.7 906.7 487.3 933.3 485.2L960 483L960 541L933.3 541C906.7 541 853.3 541 800 541C746.7 541 693.3 541 640 541C586.7 541 533.3 541 480 541C426.7 541 373.3 541 320 541C266.7 541 213.3 541 160 541C106.7 541 53.3 541 26.7 541L0 541Z"
        fill="#C22FA7"></path>
    <path
        d="M0 516L26.7 514C53.3 512 106.7 508 160 507.2C213.3 506.3 266.7 508.7 320 509.5C373.3 510.3 426.7 509.7 480 509.3C533.3 509 586.7 509 640 508.5C693.3 508 746.7 507 800 507C853.3 507 906.7 508 933.3 508.5L960 509L960 541L933.3 541C906.7 541 853.3 541 800 541C746.7 541 693.3 541 640 541C586.7 541 533.3 541 480 541C426.7 541 373.3 541 320 541C266.7 541 213.3 541 160 541C106.7 541 53.3 541 26.7 541L0 541Z"
        fill="#4c44cf"></path>
    <path
        d="M0 88L26.7 90C53.3 92 106.7 96 160 93C213.3 90 266.7 80 320 72.7C373.3 65.3 426.7 60.7 480 62C533.3 63.3 586.7 70.7 640 78.3C693.3 86 746.7 94 800 95.3C853.3 96.7 906.7 91.3 933.3 88.7L960 86L960 0L933.3 0C906.7 0 853.3 0 800 0C746.7 0 693.3 0 640 0C586.7 0 533.3 0 480 0C426.7 0 373.3 0 320 0C266.7 0 213.3 0 160 0C106.7 0 53.3 0 26.7 0L0 0Z"
        fill="#C22FA7"></path>
    <path
        d="M0 82L26.7 79C53.3 76 106.7 70 160 69.3C213.3 68.7 266.7 73.3 320 71C373.3 68.7 426.7 59.3 480 53.8C533.3 48.3 586.7 46.7 640 51.7C693.3 56.7 746.7 68.3 800 68.7C853.3 69 906.7 58 933.3 52.5L960 47L960 0L933.3 0C906.7 0 853.3 0 800 0C746.7 0 693.3 0 640 0C586.7 0 533.3 0 480 0C426.7 0 373.3 0 320 0C266.7 0 213.3 0 160 0C106.7 0 53.3 0 26.7 0L0 0Z"
        fill="#5d1c64"></path>
    <path
        d="M0 42L26.7 44.2C53.3 46.3 106.7 50.7 160 49.5C213.3 48.3 266.7 41.7 320 38.5C373.3 35.3 426.7 35.7 480 37.8C533.3 40 586.7 44 640 44.7C693.3 45.3 746.7 42.7 800 42.7C853.3 42.7 906.7 45.3 933.3 46.7L960 48L960 0L933.3 0C906.7 0 853.3 0 800 0C746.7 0 693.3 0 640 0C586.7 0 533.3 0 480 0C426.7 0 373.3 0 320 0C266.7 0 213.3 0 160 0C106.7 0 53.3 0 26.7 0L0 0Z"
        fill="#7A19B6"></path>
    <path
        d="M0 27L26.7 27.5C53.3 28 106.7 29 160 31.3C213.3 33.7 266.7 37.3 320 38.5C373.3 39.7 426.7 38.3 480 35.5C533.3 32.7 586.7 28.3 640 29C693.3 29.7 746.7 35.3 800 37.5C853.3 39.7 906.7 38.3 933.3 37.7L960 37L960 0L933.3 0C906.7 0 853.3 0 800 0C746.7 0 693.3 0 640 0C586.7 0 533.3 0 480 0C426.7 0 373.3 0 320 0C266.7 0 213.3 0 160 0C106.7 0 53.3 0 26.7 0L0 0Z"
        fill="#C22FA7"></path>
</svg>