<svg id="visual" viewBox="0 0 960 540" width="960" height="540" xmlns="http://www.w3.org/2000/svg"
    xmlns:xlink="http://www.w3.org/1999/xlink" version="1.1">
    <rect x="0" y="0" width="960" height="540" fill="none"></rect>
    <path
        d="M0 419L22.8 414.3C45.7 409.7 91.3 400.3 137 381.8C182.7 363.3 228.3 335.7 274 339.2C319.7 342.7 365.3 377.3 411.2 383.2C457 389 503 366 548.8 376C594.7 386 640.3 429 686 423.8C731.7 418.7 777.3 365.3 823 336.8C868.7 308.3 914.3 304.7 937.2 302.8L960 301L960 541L937.2 541C914.3 541 868.7 541 823 541C777.3 541 731.7 541 686 541C640.3 541 594.7 541 548.8 541C503 541 457 541 411.2 541C365.3 541 319.7 541 274 541C228.3 541 182.7 541 137 541C91.3 541 45.7 541 22.8 541L0 541Z"
        fill="#fa7268"></path>
    <path
        d="M0 339L22.8 343.8C45.7 348.7 91.3 358.3 137 380C182.7 401.7 228.3 435.3 274 437.5C319.7 439.7 365.3 410.3 411.2 402C457 393.7 503 406.3 548.8 411.7C594.7 417 640.3 415 686 414.5C731.7 414 777.3 415 823 427.2C868.7 439.3 914.3 462.7 937.2 474.3L960 486L960 541L937.2 541C914.3 541 868.7 541 823 541C777.3 541 731.7 541 686 541C640.3 541 594.7 541 548.8 541C503 541 457 541 411.2 541C365.3 541 319.7 541 274 541C228.3 541 182.7 541 137 541C91.3 541 45.7 541 22.8 541L0 541Z"
        fill="#ef5f67"></path>
    <path
        d="M0 454L22.8 456.2C45.7 458.3 91.3 462.7 137 453C182.7 443.3 228.3 419.7 274 406C319.7 392.3 365.3 388.7 411.2 403C457 417.3 503 449.7 548.8 461.8C594.7 474 640.3 466 686 455.5C731.7 445 777.3 432 823 439.7C868.7 447.3 914.3 475.7 937.2 489.8L960 504L960 541L937.2 541C914.3 541 868.7 541 823 541C777.3 541 731.7 541 686 541C640.3 541 594.7 541 548.8 541C503 541 457 541 411.2 541C365.3 541 319.7 541 274 541C228.3 541 182.7 541 137 541C91.3 541 45.7 541 22.8 541L0 541Z"
        fill="#e34c67"></path>
    <path
        d="M0 422L22.8 426.2C45.7 430.3 91.3 438.7 137 441C182.7 443.3 228.3 439.7 274 443.5C319.7 447.3 365.3 458.7 411.2 469.7C457 480.7 503 491.3 548.8 483.2C594.7 475 640.3 448 686 435.7C731.7 423.3 777.3 425.7 823 429.7C868.7 433.7 914.3 439.3 937.2 442.2L960 445L960 541L937.2 541C914.3 541 868.7 541 823 541C777.3 541 731.7 541 686 541C640.3 541 594.7 541 548.8 541C503 541 457 541 411.2 541C365.3 541 319.7 541 274 541C228.3 541 182.7 541 137 541C91.3 541 45.7 541 22.8 541L0 541Z"
        fill="#d53867"></path>
    <path
        d="M0 465L22.8 466.5C45.7 468 91.3 471 137 479C182.7 487 228.3 500 274 509C319.7 518 365.3 523 411.2 516.5C457 510 503 492 548.8 491.3C594.7 490.7 640.3 507.3 686 510.5C731.7 513.7 777.3 503.3 823 501.8C868.7 500.3 914.3 507.7 937.2 511.3L960 515L960 541L937.2 541C914.3 541 868.7 541 823 541C777.3 541 731.7 541 686 541C640.3 541 594.7 541 548.8 541C503 541 457 541 411.2 541C365.3 541 319.7 541 274 541C228.3 541 182.7 541 137 541C91.3 541 45.7 541 22.8 541L0 541Z"
        fill="#c62368"></path>
</svg>