<svg id="eiy2MNduJA61" xmlns="http://www.w3.org/2000/svg" xmlns:xlink="http://www.w3.org/1999/xlink"
    viewBox="0 0 960 540" shape-rendering="geometricPrecision" text-rendering="geometricPrecision">
    <rect width="960" height="540" rx="0" ry="0" fill="none" />
    <path
        d="M0,419l22.8-4.7c22.9-4.6,68.5-14,114.2-32.5s91.3-46.1,137-42.6s91.3,38.1,137.2,44C457,389,503,366,548.8,376c45.9,10,91.5,53,137.2,47.8c45.7-5.1,91.3-58.5,137-87s91.3-32.1,114.2-34L960,301v240h-22.8c-22.9,0-68.5,0-114.2,0s-91.3,0-137,0-91.3,0-137.2,0c-45.8,0-91.8,0-137.6,0-45.9,0-91.5,0-137.2,0s-91.3,0-137,0-91.3,0-114.2,0L0,541v-122Z"
        fill="rgba(157,41,114,0.8)" 
        transform="rotate(180) translate(0 200)"/>
    <path
        d="M0,339l22.8,4.8C45.7,348.7,91.3,358.3,137,380s91.3,55.3,137,57.5s91.3-27.2,137.2-35.5c45.8-8.3,91.8,4.3,137.6,9.7c45.9,5.3,91.5,3.3,137.2,2.8s91.3.5,137,12.7c45.7,12.1,91.3,35.5,114.2,47.1L960,486v55h-22.8c-22.9,0-68.5,0-114.2,0s-91.3,0-137,0-91.3,0-137.2,0c-45.8,0-91.8,0-137.6,0-45.9,0-91.5,0-137.2,0s-91.3,0-137,0-91.3,0-114.2,0L0,541v-202Z"
        fill="#c22fa7" 
        transform="rotate(180) translate(0 200)"/>
    <path
        d="M0,454l22.8,2.2c22.9,2.1,68.5,6.5,114.2-3.2s91.3-33.3,137-47s91.3-17.3,137.2-3c45.8,14.3,91.8,46.7,137.6,58.8c45.9,12.2,91.5,4.2,137.2-6.3s91.3-23.5,137-15.8c45.7,7.6,91.3,36,114.2,50.1L960,504v37h-22.8c-22.9,0-68.5,0-114.2,0s-91.3,0-137,0-91.3,0-137.2,0c-45.8,0-91.8,0-137.6,0-45.9,0-91.5,0-137.2,0s-91.3,0-137,0-91.3,0-114.2,0L0,541v-87Z"
        fill="#5d1c64" 
        transform="rotate(180) translate(0 200)"/>
    <path
        d="M0,422l22.8,4.2C45.7,430.3,91.3,438.7,137,441s91.3-1.3,137,2.5s91.3,15.2,137.2,26.2c45.8,11,91.8,21.6,137.6,13.5C594.7,475,640.3,448,686,435.7c45.7-12.4,91.3-10,137-6s91.3,9.6,114.2,12.5L960,445v96h-22.8c-22.9,0-68.5,0-114.2,0s-91.3,0-137,0-91.3,0-137.2,0c-45.8,0-91.8,0-137.6,0-45.9,0-91.5,0-137.2,0s-91.3,0-137,0-91.3,0-114.2,0L0,541v-119Z"
        fill="#472d85" 
        transform="rotate(180) translate(0 200)"/>
    <path
        d="M0,465l22.8,1.5C45.7,468,91.3,471,137,479s91.3,21,137,30s91.3,14,137.2,7.5C457,510,503,492,548.8,491.3c45.9-.6,91.5,16,137.2,19.2s91.3-7.2,137-8.7s91.3,5.9,114.2,9.5L960,515v26h-22.8c-22.9,0-68.5,0-114.2,0s-91.3,0-137,0-91.3,0-137.2,0c-45.8,0-91.8,0-137.6,0-45.9,0-91.5,0-137.2,0s-91.3,0-137,0-91.3,0-114.2,0L0,541v-76Z"
        fill="#7a19b6" />
    <path d="" fill="none" stroke="#3f5787" stroke-width="1.92" />
    <path
        d="M-199.10691,159.890298c0,0,369.984641-158.480811,445.140351-165.730402s243.173068,115.215785,342.688899,122.754232s191.979861-149.713259,278.754403-132.983752s149.606721,122.754233,149.606721,122.754233"
        transform="translate(62.075674-39.205684)" fill="none" fill-rule="evenodd" stroke="#472d85"
        stroke-width="111.92" stroke-linecap="round" />
    <path
        d="M-180.015651,22.416408c0,0,94.243034-29.893973,178.77794-36.719091C75.711494,-20.515352,169.955686,12.975541,205.768325,9.52102c44.805872-4.322017,111.428013-45.618867,202.824095-36.369529c61.908322,6.265159,88.041872,74.229437,188.187305,74.229437c99.800946,0,150.549844-80.502345,227.915736-80.502345s215.369916,87.82074,215.369916,87.82074"
        transform="matrix(-1 0 0-1 887.547895 16.143503)" fill="none" stroke="#9157b0"
        stroke-width="71.92" stroke-linecap="round" />
    <path
        d="M-180.015651,22.416408c0,0,94.243034-29.893973,178.77794-36.719091C75.711494,-20.515352,169.955686,12.975541,205.768325,9.52102c44.805872-4.322017,111.428013-45.618867,202.824095-36.369529c61.908322,6.265159,88.041872,74.229437,188.187305,74.229437c99.800946,0,150.549844-80.502345,227.915736-80.502345s215.369916,87.82074,215.369916,87.82074"
        transform="matrix(-1 0 0-1 992.096397-12.211718)" fill="none" fill-rule="evenodd"
        stroke="#aa43ac" stroke-width="91.92" stroke-linecap="round" />
    <path
        d="M-307.981118,11.882956c0,0,117.890784,105.593987,202.700764,105.593987c97.353439,0,193.288759-92.427064,274-93.048167c99.535376-.765962,197.322484,100.228821,274.8,93.048167c61.908322,6.265159,114.38197-99.321077,214.527403-99.321077c99.800946,0,169.368575,156.531059,246.734467,156.531059s135.283861-119.987602,135.283861-119.987602"
        transform="translate(113.957871-87.93039)" fill="none" fill-rule="evenodd" stroke="#e953da"
        stroke-width="91.92" stroke-linecap="round" />
    <path d="" fill="none" stroke="#3f5787" stroke-width="1.92" />
    <path d="" fill="none" stroke="#3f5787" stroke-width="1.92" />
    <path d="" fill="none" stroke="#3f5787" stroke-width="1.92" />
</svg>