<svg id="visual" viewBox="0 0 960 540" width="960" height="540" xmlns="http://www.w3.org/2000/svg" xmlns:xlink="http://www.w3.org/1999/xlink" version="1.1"><rect x="0" y="0" width="960" height="540" fill="#000000"></rect><path d="M0 326L7 327C14 328 28 330 41.8 329.8C55.7 329.7 69.3 327.3 83.2 326.8C97 326.3 111 327.7 125 330.2C139 332.7 153 336.3 167 335.7C181 335 195 330 208.8 329.5C222.7 329 236.3 333 250.2 335C264 337 278 337 292 337.3C306 337.7 320 338.3 334 335.8C348 333.3 362 327.7 375.8 327.7C389.7 327.7 403.3 333.3 417.2 337.2C431 341 445 343 459 343.8C473 344.7 487 344.3 501 341.2C515 338 529 332 542.8 331.5C556.7 331 570.3 336 584.2 336.5C598 337 612 333 626 333.5C640 334 654 339 668 338C682 337 696 330 709.8 327C723.7 324 737.3 325 751.2 328.2C765 331.3 779 336.7 793 340.2C807 343.7 821 345.3 835 343.2C849 341 863 335 876.8 332C890.7 329 904.3 329 918.2 328.3C932 327.7 946 326.3 953 325.7L960 325L960 541L953 541C946 541 932 541 918.2 541C904.3 541 890.7 541 876.8 541C863 541 849 541 835 541C821 541 807 541 793 541C779 541 765 541 751.2 541C737.3 541 723.7 541 709.8 541C696 541 682 541 668 541C654 541 640 541 626 541C612 541 598 541 584.2 541C570.3 541 556.7 541 542.8 541C529 541 515 541 501 541C487 541 473 541 459 541C445 541 431 541 417.2 541C403.3 541 389.7 541 375.8 541C362 541 348 541 334 541C320 541 306 541 292 541C278 541 264 541 250.2 541C236.3 541 222.7 541 208.8 541C195 541 181 541 167 541C153 541 139 541 125 541C111 541 97 541 83.2 541C69.3 541 55.7 541 41.8 541C28 541 14 541 7 541L0 541Z" fill="#fa7268"></path><path d="M0 345L7 346.2C14 347.3 28 349.7 41.8 348.8C55.7 348 69.3 344 83.2 346C97 348 111 356 125 356.5C139 357 153 350 167 347.2C181 344.3 195 345.7 208.8 346.2C222.7 346.7 236.3 346.3 250.2 348.2C264 350 278 354 292 355.5C306 357 320 356 334 356.5C348 357 362 359 375.8 358.7C389.7 358.3 403.3 355.7 417.2 356.2C431 356.7 445 360.3 459 358.7C473 357 487 350 501 349.5C515 349 529 355 542.8 355C556.7 355 570.3 349 584.2 346.8C598 344.7 612 346.3 626 349.5C640 352.7 654 357.3 668 357.7C682 358 696 354 709.8 351.2C723.7 348.3 737.3 346.7 751.2 347.2C765 347.7 779 350.3 793 350.7C807 351 821 349 835 350C849 351 863 355 876.8 355.5C890.7 356 904.3 353 918.2 349.8C932 346.7 946 343.3 953 341.7L960 340L960 541L953 541C946 541 932 541 918.2 541C904.3 541 890.7 541 876.8 541C863 541 849 541 835 541C821 541 807 541 793 541C779 541 765 541 751.2 541C737.3 541 723.7 541 709.8 541C696 541 682 541 668 541C654 541 640 541 626 541C612 541 598 541 584.2 541C570.3 541 556.7 541 542.8 541C529 541 515 541 501 541C487 541 473 541 459 541C445 541 431 541 417.2 541C403.3 541 389.7 541 375.8 541C362 541 348 541 334 541C320 541 306 541 292 541C278 541 264 541 250.2 541C236.3 541 222.7 541 208.8 541C195 541 181 541 167 541C153 541 139 541 125 541C111 541 97 541 83.2 541C69.3 541 55.7 541 41.8 541C28 541 14 541 7 541L0 541Z" fill="#f66b68"></path><path d="M0 373L7 373.5C14 374 28 375 41.8 375.3C55.7 375.7 69.3 375.3 83.2 372.3C97 369.3 111 363.7 125 362C139 360.3 153 362.7 167 363C181 363.3 195 361.7 208.8 364.2C222.7 366.7 236.3 373.3 250.2 374.3C264 375.3 278 370.7 292 369C306 367.3 320 368.7 334 367.3C348 366 362 362 375.8 362.7C389.7 363.3 403.3 368.7 417.2 368.8C431 369 445 364 459 361.3C473 358.7 487 358.3 501 359.8C515 361.3 529 364.7 542.8 368.3C556.7 372 570.3 376 584.2 375.2C598 374.3 612 368.7 626 367.3C640 366 654 369 668 370.8C682 372.7 696 373.3 709.8 371.3C723.7 369.3 737.3 364.7 751.2 365.2C765 365.7 779 371.3 793 373.2C807 375 821 373 835 369.8C849 366.7 863 362.3 876.8 362C890.7 361.7 904.3 365.3 918.2 365.5C932 365.7 946 362.3 953 360.7L960 359L960 541L953 541C946 541 932 541 918.2 541C904.3 541 890.7 541 876.8 541C863 541 849 541 835 541C821 541 807 541 793 541C779 541 765 541 751.2 541C737.3 541 723.7 541 709.8 541C696 541 682 541 668 541C654 541 640 541 626 541C612 541 598 541 584.2 541C570.3 541 556.7 541 542.8 541C529 541 515 541 501 541C487 541 473 541 459 541C445 541 431 541 417.2 541C403.3 541 389.7 541 375.8 541C362 541 348 541 334 541C320 541 306 541 292 541C278 541 264 541 250.2 541C236.3 541 222.7 541 208.8 541C195 541 181 541 167 541C153 541 139 541 125 541C111 541 97 541 83.2 541C69.3 541 55.7 541 41.8 541C28 541 14 541 7 541L0 541Z" fill="#f26467"></path><path d="M0 393L7 393.2C14 393.3 28 393.7 41.8 392.8C55.7 392 69.3 390 83.2 388C97 386 111 384 125 382.3C139 380.7 153 379.3 167 381C181 382.7 195 387.3 208.8 387.8C222.7 388.3 236.3 384.7 250.2 383.3C264 382 278 383 292 382.7C306 382.3 320 380.7 334 382.2C348 383.7 362 388.3 375.8 390C389.7 391.7 403.3 390.3 417.2 388C431 385.7 445 382.3 459 382.3C473 382.3 487 385.7 501 385.5C515 385.3 529 381.7 542.8 381.3C556.7 381 570.3 384 584.2 385.7C598 387.3 612 387.7 626 388.5C640 389.3 654 390.7 668 390C682 389.3 696 386.7 709.8 384.2C723.7 381.7 737.3 379.3 751.2 378.7C765 378 779 379 793 380C807 381 821 382 835 382C849 382 863 381 876.8 380.7C890.7 380.3 904.3 380.7 918.2 383.2C932 385.7 946 390.3 953 392.7L960 395L960 541L953 541C946 541 932 541 918.2 541C904.3 541 890.7 541 876.8 541C863 541 849 541 835 541C821 541 807 541 793 541C779 541 765 541 751.2 541C737.3 541 723.7 541 709.8 541C696 541 682 541 668 541C654 541 640 541 626 541C612 541 598 541 584.2 541C570.3 541 556.7 541 542.8 541C529 541 515 541 501 541C487 541 473 541 459 541C445 541 431 541 417.2 541C403.3 541 389.7 541 375.8 541C362 541 348 541 334 541C320 541 306 541 292 541C278 541 264 541 250.2 541C236.3 541 222.7 541 208.8 541C195 541 181 541 167 541C153 541 139 541 125 541C111 541 97 541 83.2 541C69.3 541 55.7 541 41.8 541C28 541 14 541 7 541L0 541Z" fill="#ee5d67"></path><path d="M0 400L7 401.5C14 403 28 406 41.8 407.2C55.7 408.3 69.3 407.7 83.2 406.3C97 405 111 403 125 401.2C139 399.3 153 397.7 167 398.3C181 399 195 402 208.8 403C222.7 404 236.3 403 250.2 401.3C264 399.7 278 397.3 292 397.8C306 398.3 320 401.7 334 402.2C348 402.7 362 400.3 375.8 398.2C389.7 396 403.3 394 417.2 396.3C431 398.7 445 405.3 459 406.5C473 407.7 487 403.3 501 401.3C515 399.3 529 399.7 542.8 399.5C556.7 399.3 570.3 398.7 584.2 400.7C598 402.7 612 407.3 626 408.7C640 410 654 408 668 405C682 402 696 398 709.8 396.7C723.7 395.3 737.3 396.7 751.2 396.8C765 397 779 396 793 397.5C807 399 821 403 835 402.7C849 402.3 863 397.7 876.8 395.3C890.7 393 904.3 393 918.2 395.7C932 398.3 946 403.7 953 406.3L960 409L960 541L953 541C946 541 932 541 918.2 541C904.3 541 890.7 541 876.8 541C863 541 849 541 835 541C821 541 807 541 793 541C779 541 765 541 751.2 541C737.3 541 723.7 541 709.8 541C696 541 682 541 668 541C654 541 640 541 626 541C612 541 598 541 584.2 541C570.3 541 556.7 541 542.8 541C529 541 515 541 501 541C487 541 473 541 459 541C445 541 431 541 417.2 541C403.3 541 389.7 541 375.8 541C362 541 348 541 334 541C320 541 306 541 292 541C278 541 264 541 250.2 541C236.3 541 222.7 541 208.8 541C195 541 181 541 167 541C153 541 139 541 125 541C111 541 97 541 83.2 541C69.3 541 55.7 541 41.8 541C28 541 14 541 7 541L0 541Z" fill="#ea5667"></path><path d="M0 418L7 418C14 418 28 418 41.8 417.5C55.7 417 69.3 416 83.2 414.8C97 413.7 111 412.3 125 413.3C139 414.3 153 417.7 167 417.7C181 417.7 195 414.3 208.8 414.3C222.7 414.3 236.3 417.7 250.2 420.3C264 423 278 425 292 423.5C306 422 320 417 334 415.2C348 413.3 362 414.7 375.8 414.8C389.7 415 403.3 414 417.2 414.2C431 414.3 445 415.7 459 417.5C473 419.3 487 421.7 501 421.2C515 420.7 529 417.3 542.8 416C556.7 414.7 570.3 415.3 584.2 415.7C598 416 612 416 626 415.8C640 415.7 654 415.3 668 417C682 418.7 696 422.3 709.8 421.8C723.7 421.3 737.3 416.7 751.2 414.5C765 412.3 779 412.7 793 412.2C807 411.7 821 410.3 835 410.8C849 411.3 863 413.7 876.8 415.7C890.7 417.7 904.3 419.3 918.2 419.7C932 420 946 419 953 418.5L960 418L960 541L953 541C946 541 932 541 918.2 541C904.3 541 890.7 541 876.8 541C863 541 849 541 835 541C821 541 807 541 793 541C779 541 765 541 751.2 541C737.3 541 723.7 541 709.8 541C696 541 682 541 668 541C654 541 640 541 626 541C612 541 598 541 584.2 541C570.3 541 556.7 541 542.8 541C529 541 515 541 501 541C487 541 473 541 459 541C445 541 431 541 417.2 541C403.3 541 389.7 541 375.8 541C362 541 348 541 334 541C320 541 306 541 292 541C278 541 264 541 250.2 541C236.3 541 222.7 541 208.8 541C195 541 181 541 167 541C153 541 139 541 125 541C111 541 97 541 83.2 541C69.3 541 55.7 541 41.8 541C28 541 14 541 7 541L0 541Z" fill="#e54f67"></path><path d="M0 428L7 429.3C14 430.7 28 433.3 41.8 435.7C55.7 438 69.3 440 83.2 440C97 440 111 438 125 436.3C139 434.7 153 433.3 167 432.8C181 432.3 195 432.7 208.8 432.8C222.7 433 236.3 433 250.2 433.8C264 434.7 278 436.3 292 437.7C306 439 320 440 334 438.7C348 437.3 362 433.7 375.8 432.7C389.7 431.7 403.3 433.3 417.2 435C431 436.7 445 438.3 459 439C473 439.7 487 439.3 501 438.2C515 437 529 435 542.8 434.3C556.7 433.7 570.3 434.3 584.2 433.7C598 433 612 431 626 431.7C640 432.3 654 435.7 668 436.7C682 437.7 696 436.3 709.8 435.3C723.7 434.3 737.3 433.7 751.2 432.5C765 431.3 779 429.7 793 431C807 432.3 821 436.7 835 438C849 439.3 863 437.7 876.8 437.8C890.7 438 904.3 440 918.2 441.2C932 442.3 946 442.7 953 442.8L960 443L960 541L953 541C946 541 932 541 918.2 541C904.3 541 890.7 541 876.8 541C863 541 849 541 835 541C821 541 807 541 793 541C779 541 765 541 751.2 541C737.3 541 723.7 541 709.8 541C696 541 682 541 668 541C654 541 640 541 626 541C612 541 598 541 584.2 541C570.3 541 556.7 541 542.8 541C529 541 515 541 501 541C487 541 473 541 459 541C445 541 431 541 417.2 541C403.3 541 389.7 541 375.8 541C362 541 348 541 334 541C320 541 306 541 292 541C278 541 264 541 250.2 541C236.3 541 222.7 541 208.8 541C195 541 181 541 167 541C153 541 139 541 125 541C111 541 97 541 83.2 541C69.3 541 55.7 541 41.8 541C28 541 14 541 7 541L0 541Z" fill="#e14867"></path><path d="M0 447L7 448.3C14 449.7 28 452.3 41.8 453.8C55.7 455.3 69.3 455.7 83.2 455.2C97 454.7 111 453.3 125 453.3C139 453.3 153 454.7 167 454C181 453.3 195 450.7 208.8 451.2C222.7 451.7 236.3 455.3 250.2 456.2C264 457 278 455 292 452.8C306 450.7 320 448.3 334 448.2C348 448 362 450 375.8 450.8C389.7 451.7 403.3 451.3 417.2 450.7C431 450 445 449 459 448.8C473 448.7 487 449.3 501 449.7C515 450 529 450 542.8 450.8C556.7 451.7 570.3 453.3 584.2 453.2C598 453 612 451 626 451.3C640 451.7 654 454.3 668 454.5C682 454.7 696 452.3 709.8 451.7C723.7 451 737.3 452 751.2 453.3C765 454.7 779 456.3 793 457C807 457.7 821 457.3 835 455.2C849 453 863 449 876.8 447.3C890.7 445.7 904.3 446.3 918.2 448.5C932 450.7 946 454.3 953 456.2L960 458L960 541L953 541C946 541 932 541 918.2 541C904.3 541 890.7 541 876.8 541C863 541 849 541 835 541C821 541 807 541 793 541C779 541 765 541 751.2 541C737.3 541 723.7 541 709.8 541C696 541 682 541 668 541C654 541 640 541 626 541C612 541 598 541 584.2 541C570.3 541 556.7 541 542.8 541C529 541 515 541 501 541C487 541 473 541 459 541C445 541 431 541 417.2 541C403.3 541 389.7 541 375.8 541C362 541 348 541 334 541C320 541 306 541 292 541C278 541 264 541 250.2 541C236.3 541 222.7 541 208.8 541C195 541 181 541 167 541C153 541 139 541 125 541C111 541 97 541 83.2 541C69.3 541 55.7 541 41.8 541C28 541 14 541 7 541L0 541Z" fill="#dc4167"></path><path d="M0 465L7 465.2C14 465.3 28 465.7 41.8 466.3C55.7 467 69.3 468 83.2 468.5C97 469 111 469 125 469.8C139 470.7 153 472.3 167 471.3C181 470.3 195 466.7 208.8 466.7C222.7 466.7 236.3 470.3 250.2 471.7C264 473 278 472 292 471.3C306 470.7 320 470.3 334 468.8C348 467.3 362 464.7 375.8 464.2C389.7 463.7 403.3 465.3 417.2 465.3C431 465.3 445 463.7 459 463C473 462.3 487 462.7 501 462.8C515 463 529 463 542.8 463C556.7 463 570.3 463 584.2 464.3C598 465.7 612 468.3 626 469.8C640 471.3 654 471.7 668 472.2C682 472.7 696 473.3 709.8 473.7C723.7 474 737.3 474 751.2 473C765 472 779 470 793 469.5C807 469 821 470 835 469.7C849 469.3 863 467.7 876.8 466.3C890.7 465 904.3 464 918.2 464.2C932 464.3 946 465.7 953 466.3L960 467L960 541L953 541C946 541 932 541 918.2 541C904.3 541 890.7 541 876.8 541C863 541 849 541 835 541C821 541 807 541 793 541C779 541 765 541 751.2 541C737.3 541 723.7 541 709.8 541C696 541 682 541 668 541C654 541 640 541 626 541C612 541 598 541 584.2 541C570.3 541 556.7 541 542.8 541C529 541 515 541 501 541C487 541 473 541 459 541C445 541 431 541 417.2 541C403.3 541 389.7 541 375.8 541C362 541 348 541 334 541C320 541 306 541 292 541C278 541 264 541 250.2 541C236.3 541 222.7 541 208.8 541C195 541 181 541 167 541C153 541 139 541 125 541C111 541 97 541 83.2 541C69.3 541 55.7 541 41.8 541C28 541 14 541 7 541L0 541Z" fill="#d73a67"></path><path d="M0 480L7 480.3C14 480.7 28 481.3 41.8 481.2C55.7 481 69.3 480 83.2 480.8C97 481.7 111 484.3 125 485.8C139 487.3 153 487.7 167 487C181 486.3 195 484.7 208.8 484C222.7 483.3 236.3 483.7 250.2 483.3C264 483 278 482 292 481.5C306 481 320 481 334 482.5C348 484 362 487 375.8 488C389.7 489 403.3 488 417.2 488C431 488 445 489 459 488C473 487 487 484 501 482.7C515 481.3 529 481.7 542.8 483C556.7 484.3 570.3 486.7 584.2 486.3C598 486 612 483 626 481.7C640 480.3 654 480.7 668 482.2C682 483.7 696 486.3 709.8 486C723.7 485.7 737.3 482.3 751.2 480.8C765 479.3 779 479.7 793 479.8C807 480 821 480 835 481.2C849 482.3 863 484.7 876.8 485.3C890.7 486 904.3 485 918.2 483.8C932 482.7 946 481.3 953 480.7L960 480L960 541L953 541C946 541 932 541 918.2 541C904.3 541 890.7 541 876.8 541C863 541 849 541 835 541C821 541 807 541 793 541C779 541 765 541 751.2 541C737.3 541 723.7 541 709.8 541C696 541 682 541 668 541C654 541 640 541 626 541C612 541 598 541 584.2 541C570.3 541 556.7 541 542.8 541C529 541 515 541 501 541C487 541 473 541 459 541C445 541 431 541 417.2 541C403.3 541 389.7 541 375.8 541C362 541 348 541 334 541C320 541 306 541 292 541C278 541 264 541 250.2 541C236.3 541 222.7 541 208.8 541C195 541 181 541 167 541C153 541 139 541 125 541C111 541 97 541 83.2 541C69.3 541 55.7 541 41.8 541C28 541 14 541 7 541L0 541Z" fill="#d13367"></path><path d="M0 505L7 503.7C14 502.3 28 499.7 41.8 499.7C55.7 499.7 69.3 502.3 83.2 503.3C97 504.3 111 503.7 125 503C139 502.3 153 501.7 167 500.8C181 500 195 499 208.8 499.8C222.7 500.7 236.3 503.3 250.2 504.2C264 505 278 504 292 503.2C306 502.3 320 501.7 334 501.7C348 501.7 362 502.3 375.8 502C389.7 501.7 403.3 500.3 417.2 500.5C431 500.7 445 502.3 459 503.2C473 504 487 504 501 504.3C515 504.7 529 505.3 542.8 505.5C556.7 505.7 570.3 505.3 584.2 504.7C598 504 612 503 626 502.8C640 502.7 654 503.3 668 503.3C682 503.3 696 502.7 709.8 501.5C723.7 500.3 737.3 498.7 751.2 498.2C765 497.7 779 498.3 793 498.5C807 498.7 821 498.3 835 499.5C849 500.7 863 503.3 876.8 503.8C890.7 504.3 904.3 502.7 918.2 502.2C932 501.7 946 502.3 953 502.7L960 503L960 541L953 541C946 541 932 541 918.2 541C904.3 541 890.7 541 876.8 541C863 541 849 541 835 541C821 541 807 541 793 541C779 541 765 541 751.2 541C737.3 541 723.7 541 709.8 541C696 541 682 541 668 541C654 541 640 541 626 541C612 541 598 541 584.2 541C570.3 541 556.7 541 542.8 541C529 541 515 541 501 541C487 541 473 541 459 541C445 541 431 541 417.2 541C403.3 541 389.7 541 375.8 541C362 541 348 541 334 541C320 541 306 541 292 541C278 541 264 541 250.2 541C236.3 541 222.7 541 208.8 541C195 541 181 541 167 541C153 541 139 541 125 541C111 541 97 541 83.2 541C69.3 541 55.7 541 41.8 541C28 541 14 541 7 541L0 541Z" fill="#cc2b68"></path><path d="M0 514L7 515.2C14 516.3 28 518.7 41.8 519.3C55.7 520 69.3 519 83.2 518.5C97 518 111 518 125 518.3C139 518.7 153 519.3 167 519C181 518.7 195 517.3 208.8 517.2C222.7 517 236.3 518 250.2 518.2C264 518.3 278 517.7 292 518C306 518.3 320 519.7 334 520.2C348 520.7 362 520.3 375.8 519.5C389.7 518.7 403.3 517.3 417.2 516.3C431 515.3 445 514.7 459 514.8C473 515 487 516 501 517.2C515 518.3 529 519.7 542.8 520.3C556.7 521 570.3 521 584.2 520.8C598 520.7 612 520.3 626 520.5C640 520.7 654 521.3 668 521.5C682 521.7 696 521.3 709.8 521.3C723.7 521.3 737.3 521.7 751.2 521C765 520.3 779 518.7 793 518.3C807 518 821 519 835 519.5C849 520 863 520 876.8 519.7C890.7 519.3 904.3 518.7 918.2 517.8C932 517 946 516 953 515.5L960 515L960 541L953 541C946 541 932 541 918.2 541C904.3 541 890.7 541 876.8 541C863 541 849 541 835 541C821 541 807 541 793 541C779 541 765 541 751.2 541C737.3 541 723.7 541 709.8 541C696 541 682 541 668 541C654 541 640 541 626 541C612 541 598 541 584.2 541C570.3 541 556.7 541 542.8 541C529 541 515 541 501 541C487 541 473 541 459 541C445 541 431 541 417.2 541C403.3 541 389.7 541 375.8 541C362 541 348 541 334 541C320 541 306 541 292 541C278 541 264 541 250.2 541C236.3 541 222.7 541 208.8 541C195 541 181 541 167 541C153 541 139 541 125 541C111 541 97 541 83.2 541C69.3 541 55.7 541 41.8 541C28 541 14 541 7 541L0 541Z" fill="#c62368"></path></svg>