<svg id="visual" viewBox="0 0 960 540" width="960" height="540" xmlns="http://www.w3.org/2000/svg" xmlns:xlink="http://www.w3.org/1999/xlink" version="1.1"><rect x="0" y="0" width="960" height="540" fill="#000000"></rect><path d="M0 118L7 117C14 116 28 114 41.8 112.7C55.7 111.3 69.3 110.7 83.2 109.3C97 108 111 106 125 105.8C139 105.7 153 107.3 167 106.8C181 106.3 195 103.7 208.8 102.3C222.7 101 236.3 101 250.2 103.3C264 105.7 278 110.3 292 110.3C306 110.3 320 105.7 334 104.3C348 103 362 105 375.8 106.2C389.7 107.3 403.3 107.7 417.2 107.3C431 107 445 106 459 107.2C473 108.3 487 111.7 501 111.3C515 111 529 107 542.8 106.8C556.7 106.7 570.3 110.3 584.2 111.3C598 112.3 612 110.7 626 111.3C640 112 654 115 668 115.5C682 116 696 114 709.8 111.8C723.7 109.7 737.3 107.3 751.2 105.3C765 103.3 779 101.7 793 101.2C807 100.7 821 101.3 835 103C849 104.7 863 107.3 876.8 107.8C890.7 108.3 904.3 106.7 918.2 106.7C932 106.7 946 108.3 953 109.2L960 110L960 0L953 0C946 0 932 0 918.2 0C904.3 0 890.7 0 876.8 0C863 0 849 0 835 0C821 0 807 0 793 0C779 0 765 0 751.2 0C737.3 0 723.7 0 709.8 0C696 0 682 0 668 0C654 0 640 0 626 0C612 0 598 0 584.2 0C570.3 0 556.7 0 542.8 0C529 0 515 0 501 0C487 0 473 0 459 0C445 0 431 0 417.2 0C403.3 0 389.7 0 375.8 0C362 0 348 0 334 0C320 0 306 0 292 0C278 0 264 0 250.2 0C236.3 0 222.7 0 208.8 0C195 0 181 0 167 0C153 0 139 0 125 0C111 0 97 0 83.2 0C69.3 0 55.7 0 41.8 0C28 0 14 0 7 0L0 0Z" fill="#fa7268"></path><path d="M0 84L7 83C14 82 28 80 41.8 80.8C55.7 81.7 69.3 85.3 83.2 86.5C97 87.7 111 86.3 125 86.7C139 87 153 89 167 89.8C181 90.7 195 90.3 208.8 88.7C222.7 87 236.3 84 250.2 83.3C264 82.7 278 84.3 292 83.2C306 82 320 78 334 76.8C348 75.7 362 77.3 375.8 78.8C389.7 80.3 403.3 81.7 417.2 82.2C431 82.7 445 82.3 459 81.5C473 80.7 487 79.3 501 78.2C515 77 529 76 542.8 76.2C556.7 76.3 570.3 77.7 584.2 79.3C598 81 612 83 626 84.3C640 85.7 654 86.3 668 87.2C682 88 696 89 709.8 87.5C723.7 86 737.3 82 751.2 80.8C765 79.7 779 81.3 793 81.7C807 82 821 81 835 80C849 79 863 78 876.8 78.3C890.7 78.7 904.3 80.3 918.2 80.5C932 80.7 946 79.3 953 78.7L960 78L960 0L953 0C946 0 932 0 918.2 0C904.3 0 890.7 0 876.8 0C863 0 849 0 835 0C821 0 807 0 793 0C779 0 765 0 751.2 0C737.3 0 723.7 0 709.8 0C696 0 682 0 668 0C654 0 640 0 626 0C612 0 598 0 584.2 0C570.3 0 556.7 0 542.8 0C529 0 515 0 501 0C487 0 473 0 459 0C445 0 431 0 417.2 0C403.3 0 389.7 0 375.8 0C362 0 348 0 334 0C320 0 306 0 292 0C278 0 264 0 250.2 0C236.3 0 222.7 0 208.8 0C195 0 181 0 167 0C153 0 139 0 125 0C111 0 97 0 83.2 0C69.3 0 55.7 0 41.8 0C28 0 14 0 7 0L0 0Z" fill="#eb5967"></path><path d="M0 52L7 53.2C14 54.3 28 56.7 41.8 58C55.7 59.3 69.3 59.7 83.2 58.5C97 57.3 111 54.7 125 54.8C139 55 153 58 167 57.8C181 57.7 195 54.3 208.8 53.7C222.7 53 236.3 55 250.2 56.3C264 57.7 278 58.3 292 58.2C306 58 320 57 334 56.8C348 56.7 362 57.3 375.8 57.7C389.7 58 403.3 58 417.2 56.7C431 55.3 445 52.7 459 52.2C473 51.7 487 53.3 501 55.8C515 58.3 529 61.7 542.8 63.3C556.7 65 570.3 65 584.2 64.2C598 63.3 612 61.7 626 59.7C640 57.7 654 55.3 668 54.8C682 54.3 696 55.7 709.8 57.3C723.7 59 737.3 61 751.2 59.8C765 58.7 779 54.3 793 54.2C807 54 821 58 835 58.2C849 58.3 863 54.7 876.8 53.3C890.7 52 904.3 53 918.2 55C932 57 946 60 953 61.5L960 63L960 0L953 0C946 0 932 0 918.2 0C904.3 0 890.7 0 876.8 0C863 0 849 0 835 0C821 0 807 0 793 0C779 0 765 0 751.2 0C737.3 0 723.7 0 709.8 0C696 0 682 0 668 0C654 0 640 0 626 0C612 0 598 0 584.2 0C570.3 0 556.7 0 542.8 0C529 0 515 0 501 0C487 0 473 0 459 0C445 0 431 0 417.2 0C403.3 0 389.7 0 375.8 0C362 0 348 0 334 0C320 0 306 0 292 0C278 0 264 0 250.2 0C236.3 0 222.7 0 208.8 0C195 0 181 0 167 0C153 0 139 0 125 0C111 0 97 0 83.2 0C69.3 0 55.7 0 41.8 0C28 0 14 0 7 0L0 0Z" fill="#da3f67"></path><path d="M0 35L7 33.5C14 32 28 29 41.8 28.8C55.7 28.7 69.3 31.3 83.2 32.5C97 33.7 111 33.3 125 32.8C139 32.3 153 31.7 167 31.7C181 31.7 195 32.3 208.8 32.7C222.7 33 236.3 33 250.2 32.3C264 31.7 278 30.3 292 30.8C306 31.3 320 33.7 334 34.7C348 35.7 362 35.3 375.8 34.7C389.7 34 403.3 33 417.2 31.3C431 29.7 445 27.3 459 27.3C473 27.3 487 29.7 501 31.7C515 33.7 529 35.3 542.8 36.3C556.7 37.3 570.3 37.7 584.2 36.3C598 35 612 32 626 31.5C640 31 654 33 668 32.7C682 32.3 696 29.7 709.8 29.2C723.7 28.7 737.3 30.3 751.2 31.3C765 32.3 779 32.7 793 32.8C807 33 821 33 835 32.2C849 31.3 863 29.7 876.8 29.3C890.7 29 904.3 30 918.2 30.8C932 31.7 946 32.3 953 32.7L960 33L960 0L953 0C946 0 932 0 918.2 0C904.3 0 890.7 0 876.8 0C863 0 849 0 835 0C821 0 807 0 793 0C779 0 765 0 751.2 0C737.3 0 723.7 0 709.8 0C696 0 682 0 668 0C654 0 640 0 626 0C612 0 598 0 584.2 0C570.3 0 556.7 0 542.8 0C529 0 515 0 501 0C487 0 473 0 459 0C445 0 431 0 417.2 0C403.3 0 389.7 0 375.8 0C362 0 348 0 334 0C320 0 306 0 292 0C278 0 264 0 250.2 0C236.3 0 222.7 0 208.8 0C195 0 181 0 167 0C153 0 139 0 125 0C111 0 97 0 83.2 0C69.3 0 55.7 0 41.8 0C28 0 14 0 7 0L0 0Z" fill="#c62368"></path></svg>