<svg id="visual" viewBox="0 0 960 540" width="960" height="540" xmlns="http://www.w3.org/2000/svg" xmlns:xlink="http://www.w3.org/1999/xlink" version="1.1"><rect x="0" y="0" width="960" height="540" fill="#000000"></rect><path d="M0 211L7 208.8C14 206.7 28 202.3 41.8 199.3C55.7 196.3 69.3 194.7 83.2 195.8C97 197 111 201 125 200.7C139 200.3 153 195.7 167 196.2C181 196.7 195 202.3 208.8 204.8C222.7 207.3 236.3 206.7 250.2 205.5C264 204.3 278 202.7 292 204.2C306 205.7 320 210.3 334 211.7C348 213 362 211 375.8 209.2C389.7 207.3 403.3 205.7 417.2 203.3C431 201 445 198 459 197.7C473 197.3 487 199.7 501 199.7C515 199.7 529 197.3 542.8 198.8C556.7 200.3 570.3 205.7 584.2 208.5C598 211.3 612 211.7 626 209.8C640 208 654 204 668 201C682 198 696 196 709.8 194.2C723.7 192.3 737.3 190.7 751.2 194.2C765 197.7 779 206.3 793 209.3C807 212.3 821 209.7 835 206.8C849 204 863 201 876.8 199.7C890.7 198.3 904.3 198.7 918.2 199.8C932 201 946 203 953 204L960 205L960 0L953 0C946 0 932 0 918.2 0C904.3 0 890.7 0 876.8 0C863 0 849 0 835 0C821 0 807 0 793 0C779 0 765 0 751.2 0C737.3 0 723.7 0 709.8 0C696 0 682 0 668 0C654 0 640 0 626 0C612 0 598 0 584.2 0C570.3 0 556.7 0 542.8 0C529 0 515 0 501 0C487 0 473 0 459 0C445 0 431 0 417.2 0C403.3 0 389.7 0 375.8 0C362 0 348 0 334 0C320 0 306 0 292 0C278 0 264 0 250.2 0C236.3 0 222.7 0 208.8 0C195 0 181 0 167 0C153 0 139 0 125 0C111 0 97 0 83.2 0C69.3 0 55.7 0 41.8 0C28 0 14 0 7 0L0 0Z" fill="#fa7268"></path><path d="M0 194L7 193.2C14 192.3 28 190.7 41.8 189.2C55.7 187.7 69.3 186.3 83.2 184C97 181.7 111 178.3 125 180.5C139 182.7 153 190.3 167 194C181 197.7 195 197.3 208.8 195.7C222.7 194 236.3 191 250.2 191C264 191 278 194 292 195.2C306 196.3 320 195.7 334 193.8C348 192 362 189 375.8 188C389.7 187 403.3 188 417.2 189.7C431 191.3 445 193.7 459 192C473 190.3 487 184.7 501 181.3C515 178 529 177 542.8 176.3C556.7 175.7 570.3 175.3 584.2 176.5C598 177.7 612 180.3 626 183C640 185.7 654 188.3 668 187.5C682 186.7 696 182.3 709.8 180.2C723.7 178 737.3 178 751.2 180.8C765 183.7 779 189.3 793 191.7C807 194 821 193 835 192.5C849 192 863 192 876.8 191.8C890.7 191.7 904.3 191.3 918.2 188.3C932 185.3 946 179.7 953 176.8L960 174L960 0L953 0C946 0 932 0 918.2 0C904.3 0 890.7 0 876.8 0C863 0 849 0 835 0C821 0 807 0 793 0C779 0 765 0 751.2 0C737.3 0 723.7 0 709.8 0C696 0 682 0 668 0C654 0 640 0 626 0C612 0 598 0 584.2 0C570.3 0 556.7 0 542.8 0C529 0 515 0 501 0C487 0 473 0 459 0C445 0 431 0 417.2 0C403.3 0 389.7 0 375.8 0C362 0 348 0 334 0C320 0 306 0 292 0C278 0 264 0 250.2 0C236.3 0 222.7 0 208.8 0C195 0 181 0 167 0C153 0 139 0 125 0C111 0 97 0 83.2 0C69.3 0 55.7 0 41.8 0C28 0 14 0 7 0L0 0Z" fill="#f66b68"></path><path d="M0 181L7 179.8C14 178.7 28 176.3 41.8 175.3C55.7 174.3 69.3 174.7 83.2 172.5C97 170.3 111 165.7 125 163.3C139 161 153 161 167 160.8C181 160.7 195 160.3 208.8 161.7C222.7 163 236.3 166 250.2 166C264 166 278 163 292 163.5C306 164 320 168 334 171.5C348 175 362 178 375.8 177.3C389.7 176.7 403.3 172.3 417.2 170.7C431 169 445 170 459 171.7C473 173.3 487 175.7 501 173.8C515 172 529 166 542.8 163.3C556.7 160.7 570.3 161.3 584.2 164.5C598 167.7 612 173.3 626 175C640 176.7 654 174.3 668 172.3C682 170.3 696 168.7 709.8 167.8C723.7 167 737.3 167 751.2 168.2C765 169.3 779 171.7 793 172.3C807 173 821 172 835 172.7C849 173.3 863 175.7 876.8 176.3C890.7 177 904.3 176 918.2 173.3C932 170.7 946 166.3 953 164.2L960 162L960 0L953 0C946 0 932 0 918.2 0C904.3 0 890.7 0 876.8 0C863 0 849 0 835 0C821 0 807 0 793 0C779 0 765 0 751.2 0C737.3 0 723.7 0 709.8 0C696 0 682 0 668 0C654 0 640 0 626 0C612 0 598 0 584.2 0C570.3 0 556.7 0 542.8 0C529 0 515 0 501 0C487 0 473 0 459 0C445 0 431 0 417.2 0C403.3 0 389.7 0 375.8 0C362 0 348 0 334 0C320 0 306 0 292 0C278 0 264 0 250.2 0C236.3 0 222.7 0 208.8 0C195 0 181 0 167 0C153 0 139 0 125 0C111 0 97 0 83.2 0C69.3 0 55.7 0 41.8 0C28 0 14 0 7 0L0 0Z" fill="#f26467"></path><path d="M0 147L7 146.8C14 146.7 28 146.3 41.8 147.5C55.7 148.7 69.3 151.3 83.2 151.8C97 152.3 111 150.7 125 150.7C139 150.7 153 152.3 167 152.8C181 153.3 195 152.7 208.8 150.7C222.7 148.7 236.3 145.3 250.2 144.8C264 144.3 278 146.7 292 147.8C306 149 320 149 334 150.7C348 152.3 362 155.7 375.8 158C389.7 160.3 403.3 161.7 417.2 158.8C431 156 445 149 459 146.7C473 144.3 487 146.7 501 148.7C515 150.7 529 152.3 542.8 153C556.7 153.7 570.3 153.3 584.2 153.2C598 153 612 153 626 152.8C640 152.7 654 152.3 668 154C682 155.7 696 159.3 709.8 158C723.7 156.7 737.3 150.3 751.2 149.8C765 149.3 779 154.7 793 156.8C807 159 821 158 835 156C849 154 863 151 876.8 151.8C890.7 152.7 904.3 157.3 918.2 156.7C932 156 946 150 953 147L960 144L960 0L953 0C946 0 932 0 918.2 0C904.3 0 890.7 0 876.8 0C863 0 849 0 835 0C821 0 807 0 793 0C779 0 765 0 751.2 0C737.3 0 723.7 0 709.8 0C696 0 682 0 668 0C654 0 640 0 626 0C612 0 598 0 584.2 0C570.3 0 556.7 0 542.8 0C529 0 515 0 501 0C487 0 473 0 459 0C445 0 431 0 417.2 0C403.3 0 389.7 0 375.8 0C362 0 348 0 334 0C320 0 306 0 292 0C278 0 264 0 250.2 0C236.3 0 222.7 0 208.8 0C195 0 181 0 167 0C153 0 139 0 125 0C111 0 97 0 83.2 0C69.3 0 55.7 0 41.8 0C28 0 14 0 7 0L0 0Z" fill="#ee5d67"></path><path d="M0 138L7 136.3C14 134.7 28 131.3 41.8 132.3C55.7 133.3 69.3 138.7 83.2 139.5C97 140.3 111 136.7 125 135.3C139 134 153 135 167 134.7C181 134.3 195 132.7 208.8 131.3C222.7 130 236.3 129 250.2 128.3C264 127.7 278 127.3 292 129.3C306 131.3 320 135.7 334 138.2C348 140.7 362 141.3 375.8 142C389.7 142.7 403.3 143.3 417.2 142.3C431 141.3 445 138.7 459 138C473 137.3 487 138.7 501 140.2C515 141.7 529 143.3 542.8 143.8C556.7 144.3 570.3 143.7 584.2 142C598 140.3 612 137.7 626 135.5C640 133.3 654 131.7 668 132C682 132.3 696 134.7 709.8 136.5C723.7 138.3 737.3 139.7 751.2 138.5C765 137.3 779 133.7 793 131.7C807 129.7 821 129.3 835 129.3C849 129.3 863 129.7 876.8 131C890.7 132.3 904.3 134.7 918.2 134.5C932 134.3 946 131.7 953 130.3L960 129L960 0L953 0C946 0 932 0 918.2 0C904.3 0 890.7 0 876.8 0C863 0 849 0 835 0C821 0 807 0 793 0C779 0 765 0 751.2 0C737.3 0 723.7 0 709.8 0C696 0 682 0 668 0C654 0 640 0 626 0C612 0 598 0 584.2 0C570.3 0 556.7 0 542.8 0C529 0 515 0 501 0C487 0 473 0 459 0C445 0 431 0 417.2 0C403.3 0 389.7 0 375.8 0C362 0 348 0 334 0C320 0 306 0 292 0C278 0 264 0 250.2 0C236.3 0 222.7 0 208.8 0C195 0 181 0 167 0C153 0 139 0 125 0C111 0 97 0 83.2 0C69.3 0 55.7 0 41.8 0C28 0 14 0 7 0L0 0Z" fill="#ea5667"></path><path d="M0 120L7 119.2C14 118.3 28 116.7 41.8 115.5C55.7 114.3 69.3 113.7 83.2 114C97 114.3 111 115.7 125 116.7C139 117.7 153 118.3 167 119.2C181 120 195 121 208.8 120C222.7 119 236.3 116 250.2 116C264 116 278 119 292 120C306 121 320 120 334 120.8C348 121.7 362 124.3 375.8 124.8C389.7 125.3 403.3 123.7 417.2 123.2C431 122.7 445 123.3 459 122.8C473 122.3 487 120.7 501 118.7C515 116.7 529 114.3 542.8 114.8C556.7 115.3 570.3 118.7 584.2 120.3C598 122 612 122 626 122.3C640 122.7 654 123.3 668 123.3C682 123.3 696 122.7 709.8 123.3C723.7 124 737.3 126 751.2 126C765 126 779 124 793 121.7C807 119.3 821 116.7 835 116.5C849 116.3 863 118.7 876.8 120.5C890.7 122.3 904.3 123.7 918.2 124.5C932 125.3 946 125.7 953 125.8L960 126L960 0L953 0C946 0 932 0 918.2 0C904.3 0 890.7 0 876.8 0C863 0 849 0 835 0C821 0 807 0 793 0C779 0 765 0 751.2 0C737.3 0 723.7 0 709.8 0C696 0 682 0 668 0C654 0 640 0 626 0C612 0 598 0 584.2 0C570.3 0 556.7 0 542.8 0C529 0 515 0 501 0C487 0 473 0 459 0C445 0 431 0 417.2 0C403.3 0 389.7 0 375.8 0C362 0 348 0 334 0C320 0 306 0 292 0C278 0 264 0 250.2 0C236.3 0 222.7 0 208.8 0C195 0 181 0 167 0C153 0 139 0 125 0C111 0 97 0 83.2 0C69.3 0 55.7 0 41.8 0C28 0 14 0 7 0L0 0Z" fill="#e54f67"></path><path d="M0 98L7 99.7C14 101.3 28 104.7 41.8 104.3C55.7 104 69.3 100 83.2 98.3C97 96.7 111 97.3 125 99.3C139 101.3 153 104.7 167 106.3C181 108 195 108 208.8 107.5C222.7 107 236.3 106 250.2 105.3C264 104.7 278 104.3 292 103.8C306 103.3 320 102.7 334 102C348 101.3 362 100.7 375.8 99.5C389.7 98.3 403.3 96.7 417.2 97.5C431 98.3 445 101.7 459 103C473 104.3 487 103.7 501 103.2C515 102.7 529 102.3 542.8 101.7C556.7 101 570.3 100 584.2 100.7C598 101.3 612 103.7 626 104C640 104.3 654 102.7 668 102C682 101.3 696 101.7 709.8 100.7C723.7 99.7 737.3 97.3 751.2 96.5C765 95.7 779 96.3 793 98.8C807 101.3 821 105.7 835 107.7C849 109.7 863 109.3 876.8 108.2C890.7 107 904.3 105 918.2 103.8C932 102.7 946 102.3 953 102.2L960 102L960 0L953 0C946 0 932 0 918.2 0C904.3 0 890.7 0 876.8 0C863 0 849 0 835 0C821 0 807 0 793 0C779 0 765 0 751.2 0C737.3 0 723.7 0 709.8 0C696 0 682 0 668 0C654 0 640 0 626 0C612 0 598 0 584.2 0C570.3 0 556.7 0 542.8 0C529 0 515 0 501 0C487 0 473 0 459 0C445 0 431 0 417.2 0C403.3 0 389.7 0 375.8 0C362 0 348 0 334 0C320 0 306 0 292 0C278 0 264 0 250.2 0C236.3 0 222.7 0 208.8 0C195 0 181 0 167 0C153 0 139 0 125 0C111 0 97 0 83.2 0C69.3 0 55.7 0 41.8 0C28 0 14 0 7 0L0 0Z" fill="#e14867"></path><path d="M0 87L7 86.8C14 86.7 28 86.3 41.8 87C55.7 87.7 69.3 89.3 83.2 90.3C97 91.3 111 91.7 125 91.3C139 91 153 90 167 88.3C181 86.7 195 84.3 208.8 83.7C222.7 83 236.3 84 250.2 83.7C264 83.3 278 81.7 292 81.2C306 80.7 320 81.3 334 83.2C348 85 362 88 375.8 88.2C389.7 88.3 403.3 85.7 417.2 84C431 82.3 445 81.7 459 83C473 84.3 487 87.7 501 89.3C515 91 529 91 542.8 90.3C556.7 89.7 570.3 88.3 584.2 88.5C598 88.7 612 90.3 626 91C640 91.7 654 91.3 668 89.3C682 87.3 696 83.7 709.8 83.3C723.7 83 737.3 86 751.2 87C765 88 779 87 793 86.7C807 86.3 821 86.7 835 87C849 87.3 863 87.7 876.8 88.5C890.7 89.3 904.3 90.7 918.2 91.5C932 92.3 946 92.7 953 92.8L960 93L960 0L953 0C946 0 932 0 918.2 0C904.3 0 890.7 0 876.8 0C863 0 849 0 835 0C821 0 807 0 793 0C779 0 765 0 751.2 0C737.3 0 723.7 0 709.8 0C696 0 682 0 668 0C654 0 640 0 626 0C612 0 598 0 584.2 0C570.3 0 556.7 0 542.8 0C529 0 515 0 501 0C487 0 473 0 459 0C445 0 431 0 417.2 0C403.3 0 389.7 0 375.8 0C362 0 348 0 334 0C320 0 306 0 292 0C278 0 264 0 250.2 0C236.3 0 222.7 0 208.8 0C195 0 181 0 167 0C153 0 139 0 125 0C111 0 97 0 83.2 0C69.3 0 55.7 0 41.8 0C28 0 14 0 7 0L0 0Z" fill="#dc4167"></path><path d="M0 71L7 71.3C14 71.7 28 72.3 41.8 72C55.7 71.7 69.3 70.3 83.2 69.2C97 68 111 67 125 66.7C139 66.3 153 66.7 167 66.7C181 66.7 195 66.3 208.8 66.3C222.7 66.3 236.3 66.7 250.2 68C264 69.3 278 71.7 292 72.3C306 73 320 72 334 72C348 72 362 73 375.8 73C389.7 73 403.3 72 417.2 70.7C431 69.3 445 67.7 459 67.8C473 68 487 70 501 71.2C515 72.3 529 72.7 542.8 71.7C556.7 70.7 570.3 68.3 584.2 68.5C598 68.7 612 71.3 626 73C640 74.7 654 75.3 668 75.3C682 75.3 696 74.7 709.8 74.5C723.7 74.3 737.3 74.7 751.2 73.5C765 72.3 779 69.7 793 69.7C807 69.7 821 72.3 835 71.8C849 71.3 863 67.7 876.8 66.7C890.7 65.7 904.3 67.3 918.2 67.8C932 68.3 946 67.7 953 67.3L960 67L960 0L953 0C946 0 932 0 918.2 0C904.3 0 890.7 0 876.8 0C863 0 849 0 835 0C821 0 807 0 793 0C779 0 765 0 751.2 0C737.3 0 723.7 0 709.8 0C696 0 682 0 668 0C654 0 640 0 626 0C612 0 598 0 584.2 0C570.3 0 556.7 0 542.8 0C529 0 515 0 501 0C487 0 473 0 459 0C445 0 431 0 417.2 0C403.3 0 389.7 0 375.8 0C362 0 348 0 334 0C320 0 306 0 292 0C278 0 264 0 250.2 0C236.3 0 222.7 0 208.8 0C195 0 181 0 167 0C153 0 139 0 125 0C111 0 97 0 83.2 0C69.3 0 55.7 0 41.8 0C28 0 14 0 7 0L0 0Z" fill="#d73a67"></path><path d="M0 54L7 53.7C14 53.3 28 52.7 41.8 52.7C55.7 52.7 69.3 53.3 83.2 52.7C97 52 111 50 125 49.8C139 49.7 153 51.3 167 52C181 52.7 195 52.3 208.8 53C222.7 53.7 236.3 55.3 250.2 55.5C264 55.7 278 54.3 292 52.8C306 51.3 320 49.7 334 49.2C348 48.7 362 49.3 375.8 49.7C389.7 50 403.3 50 417.2 49.8C431 49.7 445 49.3 459 50C473 50.7 487 52.3 501 53C515 53.7 529 53.3 542.8 52.3C556.7 51.3 570.3 49.7 584.2 50.3C598 51 612 54 626 54.2C640 54.3 654 51.7 668 50.5C682 49.3 696 49.7 709.8 49.7C723.7 49.7 737.3 49.3 751.2 50.7C765 52 779 55 793 55C807 55 821 52 835 52.2C849 52.3 863 55.7 876.8 57.3C890.7 59 904.3 59 918.2 57.8C932 56.7 946 54.3 953 53.2L960 52L960 0L953 0C946 0 932 0 918.2 0C904.3 0 890.7 0 876.8 0C863 0 849 0 835 0C821 0 807 0 793 0C779 0 765 0 751.2 0C737.3 0 723.7 0 709.8 0C696 0 682 0 668 0C654 0 640 0 626 0C612 0 598 0 584.2 0C570.3 0 556.7 0 542.8 0C529 0 515 0 501 0C487 0 473 0 459 0C445 0 431 0 417.2 0C403.3 0 389.7 0 375.8 0C362 0 348 0 334 0C320 0 306 0 292 0C278 0 264 0 250.2 0C236.3 0 222.7 0 208.8 0C195 0 181 0 167 0C153 0 139 0 125 0C111 0 97 0 83.2 0C69.3 0 55.7 0 41.8 0C28 0 14 0 7 0L0 0Z" fill="#d13367"></path><path d="M0 37L7 37.3C14 37.7 28 38.3 41.8 37.7C55.7 37 69.3 35 83.2 34.2C97 33.3 111 33.7 125 35C139 36.3 153 38.7 167 39.3C181 40 195 39 208.8 38.7C222.7 38.3 236.3 38.7 250.2 38C264 37.3 278 35.7 292 36C306 36.3 320 38.7 334 39.2C348 39.7 362 38.3 375.8 38C389.7 37.7 403.3 38.3 417.2 38.5C431 38.7 445 38.3 459 38.7C473 39 487 40 501 39.5C515 39 529 37 542.8 35.8C556.7 34.7 570.3 34.3 584.2 34C598 33.7 612 33.3 626 33.5C640 33.7 654 34.3 668 34.3C682 34.3 696 33.7 709.8 33.8C723.7 34 737.3 35 751.2 35.2C765 35.3 779 34.7 793 35C807 35.3 821 36.7 835 36.5C849 36.3 863 34.7 876.8 33.7C890.7 32.7 904.3 32.3 918.2 33C932 33.7 946 35.3 953 36.2L960 37L960 0L953 0C946 0 932 0 918.2 0C904.3 0 890.7 0 876.8 0C863 0 849 0 835 0C821 0 807 0 793 0C779 0 765 0 751.2 0C737.3 0 723.7 0 709.8 0C696 0 682 0 668 0C654 0 640 0 626 0C612 0 598 0 584.2 0C570.3 0 556.7 0 542.8 0C529 0 515 0 501 0C487 0 473 0 459 0C445 0 431 0 417.2 0C403.3 0 389.7 0 375.8 0C362 0 348 0 334 0C320 0 306 0 292 0C278 0 264 0 250.2 0C236.3 0 222.7 0 208.8 0C195 0 181 0 167 0C153 0 139 0 125 0C111 0 97 0 83.2 0C69.3 0 55.7 0 41.8 0C28 0 14 0 7 0L0 0Z" fill="#cc2b68"></path><path d="M0 20L7 19.8C14 19.7 28 19.3 41.8 19.3C55.7 19.3 69.3 19.7 83.2 20.2C97 20.7 111 21.3 125 20.7C139 20 153 18 167 17C181 16 195 16 208.8 16.3C222.7 16.7 236.3 17.3 250.2 17.8C264 18.3 278 18.7 292 18.3C306 18 320 17 334 16.7C348 16.3 362 16.7 375.8 17.7C389.7 18.7 403.3 20.3 417.2 20.7C431 21 445 20 459 19.7C473 19.3 487 19.7 501 19.7C515 19.7 529 19.3 542.8 19.2C556.7 19 570.3 19 584.2 19.2C598 19.3 612 19.7 626 20.5C640 21.3 654 22.7 668 23C682 23.3 696 22.7 709.8 21.7C723.7 20.7 737.3 19.3 751.2 18.5C765 17.7 779 17.3 793 17.5C807 17.7 821 18.3 835 18.5C849 18.7 863 18.3 876.8 18.7C890.7 19 904.3 20 918.2 20.3C932 20.7 946 20.3 953 20.2L960 20L960 0L953 0C946 0 932 0 918.2 0C904.3 0 890.7 0 876.8 0C863 0 849 0 835 0C821 0 807 0 793 0C779 0 765 0 751.2 0C737.3 0 723.7 0 709.8 0C696 0 682 0 668 0C654 0 640 0 626 0C612 0 598 0 584.2 0C570.3 0 556.7 0 542.8 0C529 0 515 0 501 0C487 0 473 0 459 0C445 0 431 0 417.2 0C403.3 0 389.7 0 375.8 0C362 0 348 0 334 0C320 0 306 0 292 0C278 0 264 0 250.2 0C236.3 0 222.7 0 208.8 0C195 0 181 0 167 0C153 0 139 0 125 0C111 0 97 0 83.2 0C69.3 0 55.7 0 41.8 0C28 0 14 0 7 0L0 0Z" fill="#c62368"></path></svg>