<svg id="visual" viewBox="0 0 960 540" width="960" height="540" xmlns="http://www.w3.org/2000/svg"
    xmlns:xlink="http://www.w3.org/1999/xlink" version="1.1">
    <rect x="0" y="0" width="960" height="540" fill="#000000"></rect>
    <path
        d="M0 88L26.7 90C53.3 92 106.7 96 160 93C213.3 90 266.7 80 320 72.7C373.3 65.3 426.7 60.7 480 62C533.3 63.3 586.7 70.7 640 78.3C693.3 86 746.7 94 800 95.3C853.3 96.7 906.7 91.3 933.3 88.7L960 86L960 0L933.3 0C906.7 0 853.3 0 800 0C746.7 0 693.3 0 640 0C586.7 0 533.3 0 480 0C426.7 0 373.3 0 320 0C266.7 0 213.3 0 160 0C106.7 0 53.3 0 26.7 0L0 0Z"
        fill="#fa7268"></path>
    <path
        d="M0 82L26.7 79C53.3 76 106.7 70 160 69.3C213.3 68.7 266.7 73.3 320 71C373.3 68.7 426.7 59.3 480 53.8C533.3 48.3 586.7 46.7 640 51.7C693.3 56.7 746.7 68.3 800 68.7C853.3 69 906.7 58 933.3 52.5L960 47L960 0L933.3 0C906.7 0 853.3 0 800 0C746.7 0 693.3 0 640 0C586.7 0 533.3 0 480 0C426.7 0 373.3 0 320 0C266.7 0 213.3 0 160 0C106.7 0 53.3 0 26.7 0L0 0Z"
        fill="#eb5967"></path>
    <path
        d="M0 42L26.7 44.2C53.3 46.3 106.7 50.7 160 49.5C213.3 48.3 266.7 41.7 320 38.5C373.3 35.3 426.7 35.7 480 37.8C533.3 40 586.7 44 640 44.7C693.3 45.3 746.7 42.7 800 42.7C853.3 42.7 906.7 45.3 933.3 46.7L960 48L960 0L933.3 0C906.7 0 853.3 0 800 0C746.7 0 693.3 0 640 0C586.7 0 533.3 0 480 0C426.7 0 373.3 0 320 0C266.7 0 213.3 0 160 0C106.7 0 53.3 0 26.7 0L0 0Z"
        fill="#da3f67"></path>
    <path
        d="M0 27L26.7 27.5C53.3 28 106.7 29 160 31.3C213.3 33.7 266.7 37.3 320 38.5C373.3 39.7 426.7 38.3 480 35.5C533.3 32.7 586.7 28.3 640 29C693.3 29.7 746.7 35.3 800 37.5C853.3 39.7 906.7 38.3 933.3 37.7L960 37L960 0L933.3 0C906.7 0 853.3 0 800 0C746.7 0 693.3 0 640 0C586.7 0 533.3 0 480 0C426.7 0 373.3 0 320 0C266.7 0 213.3 0 160 0C106.7 0 53.3 0 26.7 0L0 0Z"
        fill="#c62368"></path>
</svg>