<?xml version="1.0" encoding="UTF-8" standalone="no"?>
<!-- Created with Inkscape (http://www.inkscape.org/) -->

<svg
   version="1.1"
   id="svg1"
   width="1748"
   height="1240"
   viewBox="0 0 1748 1240"
   sodipodi:docname="Café Doré.png"
   inkscape:export-filename="Café Doré.svg"
   inkscape:export-xdpi="96"
   inkscape:export-ydpi="96"
   xmlns:inkscape="http://www.inkscape.org/namespaces/inkscape"
   xmlns:sodipodi="http://sodipodi.sourceforge.net/DTD/sodipodi-0.dtd"
   xmlns="http://www.w3.org/2000/svg"
   xmlns:svg="http://www.w3.org/2000/svg">
  <defs
     id="defs1" />
  <sodipodi:namedview
     id="namedview1"
     pagecolor="#ffffff"
     bordercolor="#000000"
     borderopacity="0.25"
     inkscape:showpageshadow="2"
     inkscape:pageopacity="0.0"
     inkscape:pagecheckerboard="0"
     inkscape:deskcolor="#d1d1d1"
     showgrid="false"
     inkscape:zoom="0.65407377"
     inkscape:cx="1203.2282"
     inkscape:cy="534.34339"
     inkscape:window-width="2159"
     inkscape:window-height="1351"
     inkscape:window-x="37"
     inkscape:window-y="0"
     inkscape:window-maximized="0"
     inkscape:current-layer="g2" />
  <g
     inkscape:groupmode="layer"
     inkscape:label="Image copia"
     id="g2">
    <path
       style="display:inline;fill:#c29a69;fill-opacity:1;stroke:none"
       d="m 928,410 c -5.8385,0 -19.96466,-2.57745 -24.43591,1.60339 -4.53894,4.24421 -4.26075,16.55866 -5.36811,22.39661 -3.79986,20.03296 -8.4483,39.91248 -11.94598,60 -15.95923,91.65497 -36.50568,182.55585 -53.63892,274 -4.81622,25.70532 -10.15216,51.30371 -15,77 -1.0119,5.36377 -6.94641,21.64795 -3.54394,26.25769 3.83844,5.20044 23.99573,2.69959 25.99377,-3.30164 10.27924,-30.87414 12.48224,-66.09399 19.27784,-97.95605 16.34686,-76.64423 29.38262,-154.09534 44.46527,-231 5.88177,-29.99054 11.84857,-59.95575 17.45678,-90 2.40076,-12.86115 6.63025,-25.83496 6.7392,-39 M 545,556 v 1 c 3.82971,2.04382 10.43726,0.64404 13.39661,3.60339 C 561.40717,563.61395 560,571.11987 560,575 v 41 155 44 c 0,4.71893 1.68945,13.61011 -1.02777,17.68213 -2.06354,3.09235 -14.86444,1.05414 -14.0509,5.14813 C 545.74542,841.97729 562.65918,840 566,840 h 70 v -1 c -5.79639,-1.49969 -27.11597,-1.92462 -29.39661,-7.14813 C 604.31097,826.60138 606,817.66595 606,812 V 765 621 580 c 0,-5.14478 -1.48267,-13.07397 0.60339,-17.85187 C 611.06525,551.92877 634.21191,565.4967 640,555 l -34,-2 c -2.3877,-29.99921 -26.42212,-57.19238 -21.56097,-88 2.90734,-18.42529 30.19384,-36.16193 39.56097,-12 -8.39789,1.08447 -16.96161,3.44281 -20.51776,12.00079 -5.40808,13.01465 -0.8537,36.02448 17.51776,33.63117 C 636.86017,496.5658 640.64417,476.96948 638.56018,464 633.92187,435.13428 599.94702,425.14795 580.09027,446.01465 561.5603,465.48712 560,490.47925 560,516 c 0,8.46246 3.5921,27.59186 -1.02777,34.76233 C 556.73425,554.2359 548.70593,553.72974 545,556 m 474,-117 v 2 c 4.2383,2.03967 13.3389,0.37152 15.9723,4.31787 C 1039.5042,452.10919 1036,470.9068 1036,479 v 88 c -6.7789,-5.46588 -11.2369,-13.03638 -20,-15.7793 -32.52502,-10.1806 -44.73804,35.92481 -48.41052,58.7793 -9.36005,58.24902 -11.16504,122.86694 -0.32868,181 4.04706,21.711 19.90686,63.85028 49.7392,50.08411 9.9574,-4.59485 11.8929,-14.05292 19,-21.08411 v 20 c 18.2665,0 42.5114,4.16937 60,-1 -2.8993,-5.25793 -10.1644,-2.03552 -12.3966,-7.14813 C 1080.3901,824.49219 1083,810.99805 1083,803 V 734 543 467 c 0,-6.22247 2.9063,-22.42963 -1.0277,-27.39661 C 1079.4355,436.40045 1070.6324,438 1067,438 c -14.8571,0 -33.7377,-3.21588 -48,1 m -282,9 c -11.95422,-2.21936 -24.86761,-1.05768 -37,-0.99921 -3.85065,0.0186 -10.3891,-0.38903 -12.82098,3.31324 -2.44214,3.71783 -1.13245,10.44891 -1.18287,14.68597 -0.1217,10.23297 -0.58624,20.74017 -1.03552,31 -0.4032,9.2077 -0.25805,18.82745 -1.13037,28 -0.27753,2.91815 -2.16431,8.81317 0.90814,10.91357 C 689.71924,538.3186 697.47772,520.22363 699.23071,517 711.04364,495.27655 730.16901,471.71295 737,448 m 738,0 c -10.8981,-3.22137 -26.6494,-1.68781 -38,-0.91052 -3.3635,0.23034 -9.894,0.11242 -11.9723,3.22839 -2.254,3.37964 -0.9856,9.81012 -1.0316,13.68213 -0.1169,9.83698 -0.4117,20.16248 -1.0856,30 -0.7245,10.57855 -0.1245,21.49591 -1.4861,32 -0.3103,2.39398 -1.3682,9.3642 2.7106,9.3642 4.6085,0 7.8972,-9.08759 9.7254,-12.3642 7.6184,-13.65497 15.6212,-27.15314 22.8842,-41 5.8711,-11.19318 14.7306,-21.76404 18.2554,-34 M 356,712 h -1 c -5.64383,10.5755 -2.51471,30.01978 -3.03937,42 -0.93484,21.3468 -5.79028,46.04193 -15.94519,64.99615 -6.87521,12.83271 -32.47415,26.86121 -41.04553,8 C 286.99185,809.44055 292,781.91809 292,763 V 621 576 c 0.002,-6.53583 -0.0332,-14.27856 6.04398,-18.39734 9.77554,-6.6253 22.67211,3.99317 28.19522,11.39813 14.30835,19.1836 19.77292,49.8089 23.67978,72.99921 1.22897,7.29498 1.40496,14.70532 2.51004,21.99921 0.28457,1.87823 0.94015,7.57776 4.19598,5.82489 C 361.8985,666.98492 359,647.27429 359,642 c 0,-19.69928 -1.00125,-39.36267 -1,-59 6.7e-4,-10.62646 2.50241,-21.48938 0,-32 -7.75974,2.17822 -15.25336,19.47516 -22.89581,18.36884 -4.67661,-0.67701 -9.92234,-10.97681 -14.14356,-13.82026 -14.88537,-10.02685 -35.04751,-4.78302 -46.86728,7.49079 C 259.53275,578.1593 254.11847,600.05408 250.38889,620 245.58752,645.67773 246,671.96979 246,698 c 0,25.3548 -0.46967,50.89221 3.42438,76 3.57713,23.06445 10.20654,51.82581 32.57562,63.95679 23.57376,12.7843 47.10596,1.11902 60.53241,-19.97144 12.90411,-20.2699 15.35556,-48.59277 15.46835,-71.98535 0.0505,-10.461 3.12021,-24.4043 -2.00076,-34 m 49,-131 c 9.7384,-18.29327 43.88788,-39.70532 56.46759,-11 3.99371,9.11316 2.53241,20.31488 2.53241,30 0,17.95398 2.69095,38.27405 -0.14813,55.98456 -1.11524,6.95691 -11.25461,9.19342 -16.85187,11.41437 -15.18069,6.02362 -34.97107,10.03418 -47.99536,20.13348 C 382.55716,700.28613 389,733.6983 389,752 v 50 c 0,8.95441 -1.23837,18.71075 2.82098,26.99927 C 407.37595,860.75977 451.34998,836.38721 462,814 h 2 c 5.31949,22.99359 21.77716,33.08691 45,27.98456 10.36566,-2.27747 29.50861,-13.24164 28.74695,-25.92511 -0.18878,-3.14423 -2.68683,-4.01465 -4.79712,-1.72229 -4.31116,4.6831 -17.77106,26.26452 -21.60571,7.66211 C 507.4126,802.92682 511,779.49225 511,760 V 632 c 0,-24.78973 6.93756,-58.27606 -17,-73.89893 -28.62311,-18.68084 -84.52731,-8.47589 -98.95987,23.89893 -9.56274,21.45099 -4.34521,56.05719 25.95987,51.69983 21.55911,-3.09985 31.35461,-31.5564 15.6713,-47.37421 C 427.19794,576.77106 416.62088,580.05072 405,581 m 288,116 h 75 c 1.3797,-10.91724 0,-21.95941 0,-33 0,-31.71442 -1.57733,-63.23694 -18.91516,-91 C 726.05127,536.11627 681.32312,549.25238 663.3233,583 646.84564,613.89368 646,650.89264 646,685 c 0,33.26788 0.18726,66.06104 5.27466,99 4.61944,29.90906 22.42413,58.85767 55.72534,59.29016 41.6712,0.5412 57.07666,-52.90942 60,-86.29016 0.76367,-8.71997 1.00397,-17.23181 1,-26 -10e-4,-2.75195 0.70557,-7.25732 -1.58801,-9.33795 -2.64191,-2.39661 -4.73908,1.02783 -5.1836,3.35724 -1.22363,6.41259 -1.0426,14.42315 -1.21374,20.98071 -0.62311,23.87073 -6.46106,50.14331 -20.21991,70 C 733.4342,825.17944 724.87573,834.14185 713,834.79016 696.80847,835.67407 693.58234,817.39978 693.03937,805 691.4696,769.15051 693,732.88757 693,697 m 469,-146.53625 c -27.2836,4.82275 -41.9341,31.5639 -47.196,56.53625 -8.4131,39.9267 -7.6741,83.40094 -4.8935,124 1.3447,19.63367 1.2675,39.81677 6.5147,59 8.1773,29.89594 28.8351,58.67694 63.5748,52.53625 28.0178,-4.95251 39.9402,-32.66333 45.4244,-57.53625 6.2925,-28.53845 5.5756,-57.93713 5.5756,-87 0,-32.18445 0.7072,-63.60101 -7.4777,-95 -7.2708,-27.89313 -28.728,-58.33307 -61.5223,-52.53625 M 1304,587 c 0,-7.09351 3.4597,-26.71136 -1.0277,-32.25769 C 1300.5225,551.71442 1293.4175,553 1290,553 c -10.3871,0 -20.6698,-0.15686 -31,0.83026 -4.8473,0.4632 -9.2618,-0.51727 -12,4.16974 l 11,1 v 205 56 c 0,3.70654 -3.2037,16.00696 -1.8287,18.39661 1.9052,3.3114 12.5599,1.60339 15.8287,1.60339 15.0493,0 34.5752,3.26373 49,-1 -3.6678,-6.65155 -13.5867,-0.71228 -16.3966,-7.14813 C 1302.5173,827.07397 1304,819.14471 1304,814 v -42 c 0,-48.28778 -1.1683,-96.81012 0.9607,-145 0.8058,-18.23804 4.0267,-36.51788 12.2877,-53 3.0463,-6.07776 7.4901,-14.45746 14.7516,-16.10187 5.7498,-1.30212 9.881,3.64691 8.3464,9.10187 -1.9005,6.75568 -7.1682,12.53882 -9.8819,19 -6.9336,16.50818 -6.3626,64.73621 23.5355,52.51697 25.3143,-10.34589 20.6782,-52.7439 9.5463,-71.51697 -5.8354,-9.84076 -16.3139,-18.82428 -28.5463,-16.53241 -20.2367,3.79157 -19.2146,24.77106 -31,36.53241 m 127,110 h 56 c 4.2345,0 16.082,2.04584 18.9723,-1.60339 C 1507.9116,692.94806 1507,687.91022 1507,685 v -28 c 0,-38.07922 -10.9529,-114.422 -65,-106.69983 -27.9756,3.99713 -43.2786,33.02295 -50.29,57.69983 -7.7802,27.38232 -7.71,55.78961 -7.71,84 0,29.65363 0.029,59.69171 4.9197,89 4.1972,25.15454 13.9939,50.46991 40.0803,59.7608 46.8832,16.69782 67.7521,-38.23169 74.8002,-73.7608 2.2455,-11.31964 2.1998,-22.51379 2.1998,-34 0,-3.11938 1.1935,-10.05798 -2.2631,-11.8241 -2.5937,-1.32525 -3.9719,1.88318 -4.3928,3.84339 -1.3253,6.17248 -1.2627,13.66064 -1.348,19.98071 -0.3821,28.30347 -8.5433,71.70886 -35.9961,86.35498 C 1442.4819,841.76782 1432.8286,825.35889 1431.1698,808 1427.7009,771.69934 1431,733.48132 1431,697 m -738,-6 v -54 -36 c 0,-11.27075 -3.00458,-27.75226 2.44214,-37.99615 4.13946,-7.78534 15.86951,-11.42414 22.12805,-3.89509 C 723.79297,566.59479 722,579.98932 722,589 v 70 c 0,6.78613 3.237,25.01184 -1.02777,30.39661 C 717.3623,693.95447 698.56348,691 693,691 m 767,0 h -29 V 585 c 0,-11.7962 -0.3687,-31.71948 17,-29.89044 13.9644,1.47052 12,21.93567 12,31.89044 V 691 M 1165.0007,557.60339 c 7.4721,-2.77008 14.9016,2.44703 17.3859,9.39661 4.0818,11.41895 2.6937,29.21906 2.3827,41.32483 C 1183.2999,665.51923 1184,722.66418 1184,780 c 0,13.3913 0.1569,26.56201 0,40 -0.075,6.29419 -1.3347,13.6759 -8,16.25769 -8.406,3.2561 -15.7859,-2.31079 -18.0717,-10.25769 C 1154.2045,813.06677 1156,798.3244 1156,785 V 613 c 0,-13.81714 -1.2029,-28.24744 0.1042,-42 0.5081,-5.34564 3.5861,-11.42792 8.8965,-13.39661 m -148.9969,3.0918 c 6.6653,-0.54303 12.2676,5.96808 15,11.30481 6.576,12.84387 4.9962,29.05817 4.9962,43 v 168 c 0,14.48755 0.9135,27.29175 -7.24,40 -2.5775,4.01746 -6.4945,9.88159 -11.76,10.36731 -6.3795,0.58838 -8.7106,-6.28711 -8.9599,-11.36731 -0.7486,-15.25677 -0.04,-30.72363 -0.04,-46 V 611 c 0,-12.98169 -0.3708,-26.02454 0.015,-39 0.1509,-5.06543 2.0658,-10.82227 7.9884,-11.30481 M 463,668 c 3.76984,12.75372 1,29.7041 1,43 0,27.48016 2.88297,56.81958 -1.43906,84 -1.52359,9.58167 -5.49105,20.55731 -11.88964,27.98071 -2.68976,3.12055 -7.08362,6.52411 -11.27701,3.83948 C 435.57864,824.37744 436.00653,818.91626 436,815 v -31 -67 c 0,-10.37622 -2.04037,-23.42859 2.84799,-32.99615 C 443.16785,675.54907 454.26184,670.38989 463,668 Z"
       id="path2" />
  </g>
</svg>
