<?xml version="1.0" encoding="UTF-8"?> <svg xmlns="http://www.w3.org/2000/svg" xmlns:xlink="http://www.w3.org/1999/xlink" xmlns:xodm="http://www.corel.com/coreldraw/odm/2003" xml:space="preserve" width="210mm" height="120mm" version="1.1" style="shape-rendering:geometricPrecision; text-rendering:geometricPrecision; image-rendering:optimizeQuality; fill-rule:evenodd; clip-rule:evenodd" viewBox="0 0 21000 12000"> <defs> <style type="text/css"> .fil0 {fill:black} </style> </defs> <g id="Capa_x0020_1"> <metadata id="CorelCorpID_0Corel-Layer"></metadata> <g id="logo-universidad-ort-uruguay-blanco.svg"> <g> <path class="fil0" d="M9560.21 7380c0,-330.73 0,-658.81 0,-1000.13 -26.46,18.52 -39.69,26.46 -50.27,39.69 -687.92,717.02 -1537.23,1042.46 -2521.48,1005.42 -1180.04,-44.98 -2217.21,-769.94 -2577.04,-1812.4 -359.83,-1039.81 -134.94,-1979.08 611.19,-2775.48 653.52,-698.5 1481.67,-984.25 2434.17,-915.46 597.96,44.98 1150.94,206.38 1621.9,595.31 166.69,137.58 312.21,296.33 468.31,449.79 0,-330.73 0,-669.4 0,-1016 39.69,-2.65 71.44,-5.29 103.19,-5.29 706.44,0 1412.88,-2.65 2119.31,2.65 317.5,2.65 627.06,55.56 915.46,198.44 63.5,31.75 121.71,74.08 195.79,119.06 0,-108.48 0,-209.02 0,-314.85 1341.44,0 2669.65,0 4008.44,0 0,455.08 0,912.81 0,1378.48 -391.58,0 -780.52,0 -1185.33,0 0,1354.67 0,2704.04 0,4061.35 -44.98,0 -76.73,0 -108.48,0 -997.48,0 -1994.96,0 -2995.08,2.65 -63.5,0 -103.19,-18.52 -142.88,-68.79 -404.81,-534.46 -814.92,-1063.63 -1222.38,-1595.44 -18.52,-26.46 -39.69,-50.27 -76.73,-97.9 0,600.6 0,1177.4 0,1756.83 -534.46,-7.93 -1060.99,-7.93 -1598.09,-7.93zm4495.27 -267.23c0,-1285.88 0,-2540 0,-3796.77 -113.77,0 -224.9,0 -330.73,0 171.98,936.63 -214.31,1600.73 -994.83,2084.92 436.56,566.2 873.12,1129.77 1325.56,1711.85zm-2873.37 -3796.77c0,375.71 0,743.48 0,1116.54 166.69,0 325.44,7.94 484.19,-2.65 320.15,-15.88 513.29,-232.83 523.88,-571.5 7.94,-306.92 -166.69,-510.65 -481.54,-539.75 -171.99,-15.87 -346.62,-2.64 -526.53,-2.64zm-2532.07 1428.75c-124.35,0 -243.42,0 -357.19,0 -26.46,174.63 -52.92,343.96 -82.02,518.58 71.44,21.17 145.52,44.98 219.6,63.5 18.52,5.29 52.92,-7.94 63.5,-23.81 95.26,-174.63 145.53,-357.19 156.11,-558.27zm-2950.1 0c10.58,198.44 60.85,381 153.46,552.98 7.94,15.88 37.04,37.04 50.27,34.4 82.02,-21.17 164.04,-47.63 232.83,-68.79 -26.46,-179.92 -52.92,-349.25 -79.38,-518.58 -116.41,-0.01 -235.47,-0.01 -357.18,-0.01zm2801.94 -693.21c-97.9,31.75 -190.5,60.85 -280.46,87.31 23.81,166.69 47.63,325.44 68.79,486.83 119.06,0 238.13,0 362.48,0 -7.94,-206.37 -55.56,-394.22 -150.81,-574.14zm-2656.42 -2.65c-89.96,187.85 -142.88,373.06 -145.52,574.15 127,0 246.06,0 359.83,0 23.81,-164.04 44.98,-322.79 66.15,-486.83 -92.6,-26.46 -182.56,-55.57 -280.46,-87.32zm2336.27 695.86c-158.75,0 -291.04,0 -425.98,0 -7.94,145.52 -15.88,285.75 -26.46,428.63 124.35,21.17 240.77,39.69 375.71,63.5 26.46,-166.69 50.27,-325.44 76.73,-492.13zm-1561.04 428.62c-10.58,-153.46 -21.17,-293.69 -29.1,-428.63 -140.23,0 -275.17,0 -425.98,0 26.46,166.69 52.92,325.44 82.02,492.13 132.29,-23.81 248.71,-42.33 373.06,-63.5zm1494.9 -1008.06c-140.23,26.46 -261.94,50.27 -365.13,68.79 0,121.71 -2.65,230.19 2.65,338.67 0,18.52 31.75,52.92 47.63,55.56 119.06,5.29 238.13,2.65 378.35,2.65 -21.17,-161.4 -42.34,-309.56 -63.5,-465.67zm-1524 460.38c7.94,-134.94 13.23,-261.94 21.17,-391.58 -127,-23.81 -246.06,-44.98 -378.35,-68.79 -21.17,156.1 -42.33,304.27 -66.15,460.38 153.45,-0.01 283.1,-0.01 423.33,-0.01zm1055.68 119.06c-148.17,0 -280.46,0 -412.75,0 0,134.94 0,261.94 0,391.58 132.29,7.94 256.65,15.88 386.29,21.17 10.59,-142.88 18.53,-272.52 26.46,-412.75zm-949.85 -2.65c10.58,145.52 21.17,280.46 31.75,418.04 140.23,-7.94 261.94,-15.88 383.65,-23.81 0,-134.94 0,-264.58 0,-394.23 -134.94,0 -264.59,0 -415.4,0zm529.17 -119.06c145.52,0 280.46,0 420.69,0 -7.94,-129.65 -15.88,-248.71 -23.81,-370.42 -124.35,7.94 -232.83,10.58 -338.67,21.17 -21.17,2.65 -55.56,34.4 -55.56,55.56 -5.3,95.25 -2.65,190.5 -2.65,293.69zm-111.13 -346.6c-129.65,-7.94 -256.65,-15.88 -394.23,-26.46 -7.94,132.29 -15.88,251.35 -21.17,373.06 148.17,0 280.46,0 415.4,0 0,-116.42 0,-224.9 0,-346.6zm119.06 -518.59c0,137.58 0,267.23 0,410.1 127,-7.94 248.71,-15.88 383.65,-26.46 -29.1,-129.65 -52.92,-243.42 -82.02,-359.83 -5.29,-15.88 -31.75,-37.04 -47.63,-37.04 -87.31,2.65 -169.33,10.59 -254,13.23zm-119.06 410.11c0,-145.52 0,-275.17 0,-410.1 -87.31,-5.29 -169.33,-10.58 -254,-13.23 -15.88,0 -42.33,18.52 -44.98,31.75 -29.1,116.42 -52.92,235.48 -82.02,365.13 137.58,10.57 254,18.51 381,26.45zm119.06 1452.56c82.02,5.29 158.75,13.23 235.48,15.88 15.88,0 44.98,-13.23 47.63,-23.81 31.75,-111.13 60.85,-219.6 92.6,-343.96 -140.23,-7.94 -256.65,-15.88 -375.71,-21.17 0,132.29 0,248.71 0,373.06zm489.48 -1489.6c116.42,-21.17 227.54,-44.98 359.83,-68.79 -66.15,-124.35 -121.71,-232.83 -182.56,-338.67 -7.94,-13.23 -34.4,-26.46 -50.27,-26.46 -71.44,7.94 -140.23,21.17 -214.31,31.75 31.75,134.94 58.21,264.58 87.31,402.17zm-1016 -402.17c-74.08,-10.58 -142.88,-23.81 -209.02,-31.75 -15.88,-2.65 -44.98,7.94 -52.92,21.17 -60.85,108.48 -119.06,219.6 -185.21,341.31 137.58,26.46 246.06,47.63 362.48,68.79 29.11,-134.94 55.57,-259.29 84.67,-399.52zm410.11 1513.42c-127,7.94 -243.42,18.52 -375.71,26.46 31.75,121.71 58.21,227.54 87.31,333.38 5.29,13.23 29.1,34.4 42.33,34.4 82.02,-2.65 164.04,-10.58 246.06,-18.52 0.01,-124.37 0.01,-240.79 0.01,-375.72zm597.95 39.68c-29.1,127 -58.21,246.06 -87.31,370.42 68.79,10.58 134.94,21.17 198.44,26.46 18.52,2.65 44.98,-7.94 52.92,-21.17 63.5,-100.54 121.71,-201.08 187.85,-314.85 -132.29,-23.82 -235.48,-42.34 -351.9,-60.86zm-1434.04 58.21c68.79,116.42 127,216.96 190.5,317.5 7.94,10.58 31.75,21.17 44.98,21.17 66.15,-7.94 132.29,-18.52 203.73,-29.1 -29.1,-127 -58.21,-246.06 -87.31,-370.42 -113.77,21.16 -219.6,39.68 -351.9,60.85zm1735.67 -1661.58c58.21,119.06 113.77,235.48 171.98,357.19 84.67,-26.46 166.69,-52.92 264.58,-84.67 -60.85,-79.38 -116.42,-140.23 -161.4,-209.02 -71.43,-100.54 -158.74,-127 -275.16,-63.5zm-1857.38 357.19c60.85,-127 116.42,-243.42 179.92,-373.06 -68.79,-5.29 -148.17,-34.4 -179.92,-7.94 -97.9,82.02 -177.27,187.85 -272.52,296.33 105.84,31.75 185.21,55.56 272.52,84.67zm1822.98 1685.39c68.79,0 140.23,21.17 171.98,-5.29 95.25,-76.73 174.63,-171.98 275.17,-277.81 -105.83,-29.1 -182.56,-50.27 -259.29,-74.08 -60.86,119.06 -119.06,227.54 -187.86,357.18zm-2055.81 -285.75c66.15,76.73 124.35,142.88 179.92,211.67 68.79,84.67 150.81,105.83 248.71,52.92 -60.85,-111.13 -119.06,-222.25 -177.27,-333.38 -79.38,21.17 -153.46,42.33 -251.36,68.79zm1558.4 -1799.17c-55.56,-145.52 -111.13,-277.81 -251.35,-367.77 0,134.94 0,256.65 0,381 84.66,-2.64 161.39,-7.93 251.35,-13.23zm-624.42 2.65c92.6,5.29 171.98,7.94 251.35,10.58 0,-129.65 0,-251.35 0,-386.29 -132.29,97.9 -193.14,224.9 -251.35,375.71zm370.42 2415.65c10.58,5.29 21.17,13.23 31.75,18.52 68.79,-103.19 140.23,-203.73 224.9,-330.73 -105.83,-5.29 -179.92,-7.94 -259.29,-13.23 2.64,119.06 2.64,222.25 2.64,325.44zm-116.42 -328.09c-82.02,5.29 -153.46,10.58 -235.48,18.52 60.85,129.65 119.06,243.42 235.48,328.08 0,-121.7 0,-227.53 0,-346.6zm-209.02 -2439.46c-153.46,79.38 -264.58,174.63 -365.13,306.92 63.5,10.58 108.48,21.17 150.81,21.17 23.81,0 55.56,-15.88 66.15,-34.4 50.27,-89.96 92.61,-182.56 148.17,-293.69zm881.06 306.92c5.29,-7.94 13.23,-18.52 18.52,-26.46 -113.77,-95.25 -224.9,-190.5 -338.67,-285.75 -7.94,7.94 -15.88,15.88 -21.17,23.81 31.75,55.56 63.5,111.13 92.6,169.33 79.39,153.47 76.74,153.47 248.72,119.07zm-1214.43 2206.63c111.13,84.67 211.67,161.4 314.85,238.13 -15.88,-71.44 -47.63,-127 -74.08,-182.56 -58.21,-108.49 -95.25,-121.72 -240.77,-55.57zm878.41 222.25c5.29,5.29 10.58,10.58 15.88,18.52 100.54,-79.38 201.08,-158.75 301.63,-238.13 -5.29,-13.23 -10.58,-29.1 -15.88,-42.33 -60.85,10.58 -142.88,0 -179.92,37.04 -58.21,60.85 -84.67,148.17 -121.71,224.9zm320.15 -2659.07c-5.29,7.94 -10.58,18.52 -15.88,26.46 103.19,39.69 121.71,232.83 314.85,145.52 -108.47,-60.85 -203.72,-116.41 -298.97,-171.98zm-1481.67 166.69c2.65,10.58 5.29,23.81 10.58,34.4 44.98,-5.29 103.19,2.65 134.94,-23.81 58.21,-42.33 103.19,-105.83 153.46,-158.75 -2.65,-5.29 -7.94,-10.58 -10.58,-15.88 -95.25,52.92 -193.15,108.48 -288.4,164.04zm44.98 2307.17c76.73,42.33 148.17,79.38 219.6,116.42 5.29,-7.94 7.94,-15.88 13.23,-23.81 -74.08,-34.4 -92.6,-177.28 -232.83,-92.61zm1685.4 -5.29c-119.06,-37.04 -166.69,-10.58 -232.83,124.35 79.37,-42.33 148.16,-79.37 232.83,-124.35z"></path> <path class="fil0" d="M7554.67 7948.85c227.54,0 486.83,-2.65 748.77,2.65 50.27,0 105.83,29.1 148.17,58.21 105.83,71.44 97.9,190.5 -10.58,256.65 -42.33,23.81 -92.6,37.04 -156.1,63.5 129.65,116.42 256.65,227.54 381,338.67 -92.6,0 -195.79,2.65 -298.98,-2.65 -26.46,0 -52.92,-26.46 -74.08,-47.63 -89.96,-79.38 -174.63,-164.04 -264.58,-243.42 -26.46,-23.81 -63.5,-34.4 -97.9,-55.56 -52.92,214.31 -23.81,298.98 100.54,349.25 -82.02,0 -166.69,0 -248.71,0 -84.67,0 -166.69,0 -256.65,0 44.98,-26.46 97.9,-42.33 116.42,-74.08 18.52,-34.4 7.94,-87.31 7.94,-132.29 0,-116.42 0,-235.48 0,-351.9 -7.95,-137.58 -7.95,-137.58 -95.26,-161.4zm359.83 349.25c82.02,-7.94 153.46,-10.58 222.25,-23.81 71.44,-15.88 113.77,-66.15 113.77,-140.23 0,-68.79 -37.04,-124.35 -105.83,-137.58 -74.08,-15.88 -150.81,-21.17 -230.19,-29.1 0,113.77 0,214.31 0,330.72z"></path> <path class="fil0" d="M17484.48 8660.58c108.48,-7.94 124.35,-74.08 121.71,-164.04 -5.29,-129.65 -2.65,-259.29 -2.65,-386.29 0,-137.58 0,-137.58 -127,-185.21 272.52,10.58 545.04,21.17 817.56,34.4 34.4,2.65 68.79,21.17 100.54,39.69 124.35,74.08 121.71,209.02 -5.29,275.17 -39.69,21.17 -84.67,31.75 -142.88,55.56 129.65,116.42 254,227.54 378.35,336.02 -148.17,-5.29 -317.5,52.92 -444.5,-111.13 -52.92,-71.44 -129.65,-127 -198.44,-185.21 -23.81,-21.17 -58.21,-31.75 -89.96,-47.63 -58.21,198.44 -26.46,296.33 116.42,341.31 -190.48,-2.64 -357.17,-2.64 -523.86,-2.64zm391.58 -698.5c0,124.35 0,224.9 0,336.02 79.38,-7.94 153.46,-10.58 222.25,-26.46 66.15,-15.88 108.48,-60.85 111.13,-134.94 2.65,-71.44 -31.75,-124.35 -100.54,-142.88 -74.09,-15.86 -150.81,-18.51 -232.84,-31.74z"></path> <path class="fil0" d="M10896.36 7948.85c201.08,0 444.5,-5.29 685.27,2.65 76.73,2.65 158.75,39.69 224.9,79.38 219.6,132.29 216.96,423.33 -13.23,537.1 -116.42,58.21 -256.65,82.02 -388.94,92.6 -177.27,15.88 -359.83,2.65 -550.33,-2.65 164.04,0 137.58,-113.77 140.23,-211.67 0,-108.48 0,-216.96 0,-322.79 -0.01,-153.45 -0.01,-153.45 -97.9,-174.62zm367.77 26.46c0,201.08 0,394.23 2.65,587.38 0,18.52 26.46,47.63 44.98,55.56 132.29,42.33 288.4,-39.69 336.02,-171.98 97.89,-277.81 -60.86,-478.9 -383.65,-470.96z"></path> <path class="fil0" d="M13679.77 8665.87c119.06,-13.23 121.71,-92.6 119.06,-179.92 -2.65,-129.65 0,-259.29 0,-386.29 0,-129.65 -2.65,-132.29 -129.65,-156.1 134.94,-29.1 679.98,-15.88 804.33,26.46 60.85,21.17 124.35,47.63 174.63,87.31 179.92,134.94 169.33,399.52 -34.4,502.71 -121.71,60.85 -267.23,87.31 -404.81,103.19 -153.46,18.52 -312.21,5.29 -468.31,5.29 -18.51,-2.65 -39.68,-2.65 -60.85,-2.65zm388.94 -690.56c0,198.44 0,394.23 2.65,587.38 0,18.52 26.46,47.63 47.63,52.92 142.88,42.33 298.98,-50.27 338.67,-193.15 76.72,-275.17 -71.45,-452.44 -388.95,-447.15z"></path> <path class="fil0" d="M16584.9 7895.94c134.94,37.04 277.81,55.56 399.52,116.42 254,124.35 259.29,402.17 26.46,563.56 -216.96,148.17 -650.87,145.52 -867.83,-5.29 -216.96,-153.46 -211.67,-402.17 10.58,-547.69 129.65,-82.02 272.52,-103.19 423.33,-103.19 2.65,-7.94 5.29,-15.88 7.94,-23.81zm293.69 402.16c0,-161.4 -50.27,-264.58 -150.81,-312.21 -150.81,-71.44 -341.31,-13.23 -407.46,121.71 -87.31,177.27 -26.46,436.56 116.42,505.35 26.46,13.23 55.56,21.17 84.67,23.81 227.53,29.11 357.18,-95.24 357.18,-338.66z"></path> <path class="fil0" d="M6615.4 8271.65c140.23,-2.65 145.52,-5.29 259.29,-185.21 0,140.23 0,267.23 0,402.17 -137.58,-169.33 -137.58,-169.33 -261.94,-169.33 0,82.02 -5.29,166.69 2.65,246.06 2.65,23.81 52.92,55.56 82.02,55.56 185.21,7.94 370.42,7.94 481.54,-190.5 5.29,5.29 13.23,7.94 18.52,13.23 -15.88,74.08 -29.1,145.52 -44.98,219.6 -317.5,0 -627.06,0 -936.62,0 158.75,-13.23 124.35,-132.29 124.35,-230.19 2.65,-105.83 0,-211.67 0,-314.85 0,-145.52 -2.65,-148.17 -166.69,-179.92 328.08,0 632.35,0 939.27,0 0,71.44 0,137.58 0,185.21 -68.79,-44.98 -137.58,-108.48 -216.96,-132.29 -84.67,-26.46 -182.56,-13.23 -283.1,-18.52 2.65,105.83 2.65,198.43 2.65,298.98z"></path> <path class="fil0" d="M2755.13 8073.21c0,169.33 2.65,314.85 0,457.73 -2.65,92.6 74.08,103.19 132.29,132.29 -108.48,0 -216.96,0 -328.08,0 44.98,-26.46 100.54,-42.33 119.06,-76.73 21.17,-39.69 13.23,-97.9 15.88,-148.17 2.65,-103.19 0,-203.73 0,-306.92 0,-132.29 -5.29,-140.23 -134.94,-198.44 89.96,0 179.92,10.58 267.23,-2.65 108.48,-15.88 166.69,52.92 235.48,108.48 129.65,105.83 261.94,211.67 391.58,317.5 2.65,2.65 10.58,2.65 23.81,5.29 0,-111.13 10.58,-222.25 -5.29,-328.08 -5.29,-39.69 -79.38,-71.44 -111.13,-97.9 89.96,0 201.08,0 312.21,0 -127,15.88 -132.29,103.19 -129.65,203.73 5.29,150.81 2.65,301.63 0,449.79 0,29.1 -2.65,58.21 -5.29,108.48 -267.23,-211.65 -515.93,-410.09 -783.16,-624.4z"></path> <path class="fil0" d="M10369.84 9896.19c-97.9,-84.67 -92.6,-97.9 76.73,-224.9 -5.29,-2.65 -7.94,-7.94 -13.23,-10.58 -79.38,-31.75 -158.75,-68.79 -148.17,-166.69 10.58,-103.19 95.25,-140.23 182.56,-161.4 42.33,-10.58 89.96,-15.88 132.29,-13.23 129.65,7.94 261.94,18.52 391.58,29.1 2.65,7.94 5.29,18.52 10.58,26.46 -34.4,13.23 -68.79,23.81 -89.96,31.75 0,58.21 21.17,132.29 -5.29,169.33 -37.04,50.27 -108.48,79.38 -171.98,100.54 -47.63,18.52 -105.83,7.94 -158.75,15.88 -39.69,5.29 -79.38,18.52 -119.06,26.46 0,13.23 -2.65,26.46 -2.65,39.69 31.75,10.58 63.5,26.46 97.9,29.1 89.96,5.29 179.92,0 269.88,5.29 113.77,7.94 187.85,58.21 182.56,124.35 -5.29,95.25 -79.38,137.58 -158.75,142.88 -150.81,10.58 -304.27,7.94 -455.08,2.65 -37.04,-2.65 -71.44,-44.98 -105.83,-68.79 26.46,-29.1 55.56,-60.85 84.67,-97.89zm354.54 -394.23c-2.65,-13.23 0,-44.98 -13.23,-60.85 -26.46,-31.75 -60.85,-74.08 -97.9,-82.02 -58.21,-13.23 -89.96,34.4 -103.19,89.96 -5.29,21.17 -2.65,42.33 -2.65,63.5 0,97.9 37.04,150.81 105.83,148.17 66.16,-0.01 111.14,-58.22 111.14,-158.76zm-82.02 415.39c-58.21,5.29 -113.77,5.29 -169.33,15.88 -18.52,2.65 -47.63,23.81 -50.27,39.69 -2.65,15.88 21.17,44.98 39.69,50.27 121.71,42.33 246.06,37.04 367.77,-2.65 15.88,-5.29 39.69,-34.4 37.04,-42.33 -7.94,-18.52 -29.1,-39.69 -47.63,-42.33 -55.56,-10.59 -116.42,-13.24 -177.27,-18.53z"></path> <path class="fil0" d="M1911.11 7935.62c129.65,0 248.71,0 378.35,0 -148.17,39.69 -153.46,44.98 -153.46,195.79 0,89.96 0,179.92 0,269.88 0,119.06 -55.56,201.08 -169.33,238.13 -182.56,60.85 -365.13,63.5 -545.04,-7.94 -89.96,-34.4 -137.58,-100.54 -132.29,-201.08 2.65,-108.48 0,-216.96 0,-325.44 0,-87.31 -5.29,-166.69 -124.35,-169.33 179.92,0 359.83,0 537.1,0 0,2.65 0,7.94 0,10.58 -23.81,2.65 -44.98,2.65 -68.79,5.29 -52.92,5.29 -82.02,34.4 -79.38,89.96 0,145.52 -2.65,288.4 5.29,431.27 2.65,34.4 18.52,82.02 44.98,100.54 105.83,74.08 222.25,63.5 336.02,21.17 103.19,-37.04 127,-127 127,-227.54 0,-76.73 0,-156.1 0,-235.48 2.65,-150.82 2.65,-150.82 -156.1,-195.8z"></path> <path class="fil0" d="M8951.67 8660.58c0,-76.73 0,-164.04 0,-277.81 26.46,44.98 39.69,66.15 52.92,87.31 84.67,140.23 298.98,216.96 449.79,156.1 34.4,-13.23 79.38,-50.27 82.02,-82.02 2.65,-29.1 -34.4,-76.73 -66.15,-92.6 -84.67,-42.33 -179.92,-66.15 -267.23,-103.19 -60.85,-23.81 -124.35,-50.27 -177.27,-87.31 -111.13,-76.73 -108.48,-198.44 5.29,-272.52 140.23,-92.6 293.69,-82.02 449.79,-44.98 50.27,13.23 105.83,2.65 169.33,2.65 0,55.56 0,132.29 0,240.77 -71.44,-142.88 -166.69,-209.02 -296.33,-224.9 -7.94,0 -18.52,-2.65 -26.46,-2.65 -103.19,-5.29 -198.44,31.75 -195.79,87.31 0,89.96 87.31,97.9 145.52,121.71 108.48,44.98 219.6,79.38 328.08,124.35 71.44,29.1 129.65,79.38 129.65,166.69 0,92.6 -66.15,140.23 -137.58,171.98 -134.94,63.5 -277.81,60.85 -423.33,31.75 -68.79,-13.22 -142.88,-2.64 -222.25,-2.64z"></path> <path class="fil0" d="M6874.69 9107.73c171.98,0 341.31,0 513.29,0 -140.23,-2.65 -132.29,92.6 -129.65,190.5 5.29,116.42 2.65,235.48 0,351.9 0,76.73 34.4,134.94 108.48,142.88 84.67,7.94 171.98,2.65 254,-13.23 68.79,-13.23 111.13,-74.08 113.77,-148.17 5.29,-132.29 10.58,-264.58 7.94,-396.88 -2.65,-76.73 -21.17,-89.96 -132.29,-121.71 111.13,0 219.6,0 330.73,0 -132.29,5.29 -132.29,95.25 -129.65,193.15 2.65,95.25 -5.29,193.15 -2.65,288.4 2.65,124.35 -60.85,198.44 -171.98,235.48 -156.1,52.92 -312.21,52.92 -468.31,2.65 -124.35,-42.33 -166.69,-105.83 -169.33,-235.48 -2.65,-111.13 -5.29,-222.25 0,-333.38 2.65,-95.26 -26.45,-148.17 -124.35,-156.11z"></path> <path class="fil0" d="M19590.56 8663.23c-177.27,0 -349.25,0 -518.58,0 132.29,-10.58 116.42,-105.83 113.77,-193.15 -2.65,-161.4 0,-322.79 0,-486.83 -150.81,-18.52 -277.81,-10.58 -357.19,142.88 0,-60.85 0,-121.71 0,-187.85 330.73,0 658.81,0 992.19,0 0,63.5 0,127 0,187.85 -79.38,-153.46 -209.02,-161.4 -365.13,-145.52 0,89.96 0,179.92 0,267.23 0,71.44 0,142.88 0,216.96 2.65,179.91 -13.22,140.22 134.94,198.43z"></path> <path class="fil0" d="M12594.98 8660.58c-124.35,0 -232.83,0 -338.67,0 119.06,-52.92 169.33,-169.33 238.13,-264.58 111.13,-158.75 219.6,-320.15 338.67,-492.13 95.25,140.23 185.21,272.52 272.52,402.17 52.92,76.73 100.54,156.1 156.1,230.19 34.4,44.98 82.02,82.02 121.71,121.71 -145.52,0 -304.27,0 -473.6,0 37.04,-13.23 66.15,-23.81 95.25,-34.4 -37.04,-134.94 -74.08,-166.69 -193.15,-166.69 -74.08,0 -150.81,-2.65 -224.9,2.65 -26.46,2.65 -60.85,10.58 -76.73,29.1 -84.66,87.32 -71.43,121.71 84.67,171.98zm129.65 -494.77c-60.85,89.96 -111.13,164.04 -164.04,248.71 116.42,0 214.31,0 330.73,0 -58.21,-87.31 -108.48,-158.75 -166.69,-248.71z"></path> <path class="fil0" d="M11322.34 9337.92c74.08,0 161.4,0 264.58,0 0,113.77 0,224.9 0,333.38 0,50.27 -5.29,108.48 68.79,116.42 63.5,5.29 121.71,-55.56 121.71,-124.35 0,-66.15 5.29,-132.29 -2.65,-198.44 -5.29,-44.98 -26.46,-84.67 -39.69,-127 71.44,0 161.4,0 254,0 44.98,164.04 -37.04,343.96 55.56,508 -87.31,-15.88 -190.5,34.4 -291.04,-37.04 -31.75,13.23 -71.44,34.4 -116.42,44.98 -171.98,44.98 -275.17,-34.4 -277.81,-211.67 0,-63.5 5.29,-127 -2.65,-187.85 0.01,-39.7 -21.15,-74.1 -34.38,-116.43z"></path> <path class="fil0" d="M5334.82 8697.62c-68.79,-105.83 -132.29,-198.44 -195.79,-291.04 -74.08,-113.77 -145.52,-227.54 -224.9,-338.67 -37.04,-50.27 -84.67,-92.6 -124.35,-132.29 150.81,0 317.5,0 484.19,0 0,2.65 -2.65,10.58 -2.65,10.58 -127,18.52 -129.65,26.46 -60.85,132.29 76.73,119.06 156.1,235.48 240.77,365.13 89.96,-137.58 177.27,-264.58 261.94,-394.23 29.1,-44.98 13.23,-74.08 -34.4,-87.31 -23.81,-7.94 -50.27,-13.23 -74.08,-26.46 108.48,0 214.31,0 304.27,0 -58.21,66.15 -127,132.29 -185.21,209.02 -113.77,156.1 -219.6,314.85 -328.08,473.6 -15.89,23.82 -34.41,44.99 -60.86,79.38z"></path> <path class="fil0" d="M9623.71 9332.62c52.92,0 119.06,0 187.85,0 21.17,0 39.69,2.65 58.21,5.29 52.92,166.69 -44.98,346.6 63.5,505.35 -89.96,-21.17 -195.79,42.33 -277.81,-31.75 -87.31,15.88 -169.33,42.33 -254,42.33 -97.9,0 -150.81,-63.5 -156.1,-161.4 -2.65,-71.44 2.65,-145.52 -5.29,-216.96 -5.29,-47.63 -23.81,-92.6 -37.04,-142.88 68.79,0 156.1,0 256.65,0 0,105.83 -2.65,211.67 0,314.85 2.65,55.56 -13.23,129.65 76.73,134.94 68.79,2.65 121.71,-63.5 121.71,-145.52 0,-52.92 5.29,-108.48 -2.65,-161.4 -0.01,-42.3 -18.53,-89.93 -31.76,-142.85z"></path> <path class="fil0" d="M12626.73 9404.06c-2.65,39.69 -5.29,76.73 -7.94,116.42 -58.21,-5.29 -116.42,-13.23 -174.63,-18.52 5.29,-31.75 -2.65,-74.08 15.88,-92.6 92.6,-105.83 425.98,-124.35 521.23,-23.81 26.46,26.46 37.04,79.38 39.69,121.71 5.29,87.31 2.65,177.27 2.65,272.52 39.69,0 66.15,0 95.25,0 -113.77,103.19 -222.25,105.83 -322.79,13.23 -76.73,21.17 -145.52,50.27 -219.6,63.5 -63.5,10.58 -132.29,-2.65 -156.1,-74.08 -23.81,-71.44 29.1,-113.77 84.67,-140.23 71.44,-34.4 148.17,-68.79 224.9,-89.96 74.08,-18.52 89.96,-68.79 66.15,-119.06 -15.88,-34.4 -68.79,-55.56 -108.48,-68.79 -23.81,-7.94 -55.56,13.23 -82.02,21.17 5.27,5.27 13.2,10.56 21.14,18.5zm174.63 156.11c-50.27,29.1 -92.6,42.33 -119.06,71.44 -23.81,23.81 -29.1,63.5 -42.33,97.9 31.75,10.58 68.79,34.4 95.25,26.46 26.46,-7.94 52.92,-44.98 63.5,-74.08 10.57,-31.77 2.64,-68.81 2.64,-121.72z"></path> <path class="fil0" d="M4485.5 8663.23c-169.33,0 -338.67,0 -515.94,0 134.94,-55.56 134.94,-55.56 134.94,-209.02 0,-105.83 0,-209.02 0,-314.85 0,-161.4 0,-161.4 -153.46,-203.73 193.15,0 378.35,0 576.79,0 -158.75,37.04 -158.75,37.04 -158.75,193.15 0,116.42 2.65,232.83 0,351.9 0.01,87.3 0.01,171.96 116.42,182.55z"></path> <path class="fil0" d="M10581.5 7935.62c-137.58,29.1 -142.88,34.4 -142.88,171.98 0,121.71 5.29,246.06 -2.65,367.77 -5.29,100.54 7.94,177.27 129.65,185.21 -171.98,0 -341.31,0 -513.29,0 124.35,-10.58 119.06,-97.9 116.42,-187.85 -2.65,-119.06 0,-240.77 0,-359.83 0,-145.52 0,-145.52 -161.4,-177.27 206.38,-0.01 388.94,-0.01 574.15,-0.01z"></path> <path class="fil0" d="M13388.73 9337.92c23.81,-2.65 42.33,-5.29 63.5,-5.29 95.25,0 190.5,0 272.52,0 -52.92,150.81 92.6,214.31 124.35,349.25 44.98,-82.02 79.38,-140.23 111.13,-198.44 31.75,-60.85 60.85,-119.06 -42.33,-145.52 71.44,0 142.88,0 219.6,0 -121.71,95.25 -164.04,238.13 -238.13,359.83 -60.85,97.9 -113.77,203.73 -177.27,301.63 -55.56,84.67 -150.81,116.42 -243.42,79.38 -31.75,-13.23 -60.85,-44.98 -74.08,-76.73 -5.29,-13.23 34.4,-60.85 55.56,-63.5 39.69,0 79.38,18.52 116.42,37.04 13.23,7.94 15.88,34.4 23.81,52.92 116.42,-37.04 158.75,-137.58 100.54,-232.83 -66.15,-105.83 -132.29,-214.31 -201.08,-320.15 -31.74,-44.99 -68.79,-87.32 -111.12,-137.59z"></path> <path class="fil0" d="M8549.5 9337.92c5.29,34.4 10.58,58.21 13.23,74.08 74.08,-31.75 140.23,-66.15 214.31,-87.31 29.1,-7.94 71.44,15.88 100.54,37.04 10.58,7.94 7.94,63.5 -5.29,71.44 -34.4,18.52 -74.08,23.81 -113.77,29.1 -10.58,2.65 -21.17,-7.94 -31.75,-13.23 -74.08,-44.98 -129.65,-7.94 -145.52,58.21 -18.52,89.96 -18.52,182.56 -15.88,275.17 0,21.17 42.33,39.69 66.15,60.85 -116.42,0 -232.83,0 -351.9,0 82.02,-84.67 76.73,-436.56 -10.58,-505.35 92.61,0 182.57,0 280.46,0z"></path> </g> </g> </g> </svg> 